<?xml version="1.0" encoding="UTF-8" standalone="no"?>
<!-- Created with Inkscape (http://www.inkscape.org/) -->

<svg
   version="1.1"
   id="svg1"
   width="359.05466"
   height="85.038666"
   viewBox="0 0 359.05466 85.038666"
   sodipodi:docname="accents.pdf"
   xmlns:inkscape="http://www.inkscape.org/namespaces/inkscape"
   xmlns:sodipodi="http://sodipodi.sourceforge.net/DTD/sodipodi-0.dtd"
   xmlns="http://www.w3.org/2000/svg"
   xmlns:svg="http://www.w3.org/2000/svg">
  <defs
     id="defs1" />
  <sodipodi:namedview
     id="namedview1"
     pagecolor="#ffffff"
     bordercolor="#000000"
     borderopacity="0.25"
     inkscape:showpageshadow="2"
     inkscape:pageopacity="0.0"
     inkscape:pagecheckerboard="0"
     inkscape:deskcolor="#d1d1d1">
    <inkscape:page
       x="0"
       y="0"
       inkscape:label="1"
       id="page1"
       width="359.05466"
       height="85.038666"
       margin="0"
       bleed="0" />
  </sodipodi:namedview>
  <g
     id="g1"
     inkscape:groupmode="layer"
     inkscape:label="1">
    <path
       id="path1"
       d="m 0.19925,-35.63274 h 42.5202 v 21.26009 H 0.19925 Z"
       style="fill:#c5233f;fill-opacity:1;fill-rule:nonzero;stroke:none"
       transform="matrix(1.3333333,0,0,-1.3333333,-0.26533333,-19.164)" />
    <path
       id="path2"
       d="m 3.6338125,0.09289844 c 0.6210938,0 1.2070313,-0.10546875 1.78125,-0.328125 L 5.1924063,-1.0906953 c -0.4570313,0.19921874 -0.9140625,0.29296874 -1.3828125,0.29296874 -1.5585938,0 -2.34375,-0.90234374 -2.34375,-2.71875004 0,-1.6523437 0.8085937,-2.5898437 2.0625,-2.5898437 0.5273437,0 0.9960937,0.2460937 1.2890625,0.6914062 l 0.7265625,-0.7148437 c -0.328125,-0.5625 -1.0664063,-0.8789063 -2.0273438,-0.8789063 -1.96875,0 -3.09375,1.3007813 -3.09375,3.5390625 0,2.3789063 1.078125,3.56250004 3.2109375,3.56250004 z m 5.1914063,0 c 1.4765622,0 2.3320312,-0.84375 2.3320312,-2.32031254 0,-1.453125 -0.761719,-2.2734375 -2.0976562,-2.2734375 -0.375,0 -0.7382813,0.035156 -1.1015625,0.1757813 l 0.046875,-1.6757813 H 10.723656 V -6.9031953 H 6.9970938 L 6.891625,-3.3055391 h 0.5507813 c 0.3984375,-0.2109375 0.8203125,-0.328125 1.2773437,-0.328125 0.9023438,0 1.417969,0.515625 1.417969,1.40625 0,0.9140625 -0.4687502,1.42968754 -1.3007815,1.42968754 -0.84375,0 -1.3125,-0.42187504 -1.3125,-1.13671874 H 6.4814688 c 0,1.28906249 0.84375,2.02734374 2.34375,2.02734374 z M 12.411156,-8.515625e-4 h 4.5 V -0.92663281 H 13.934594 V -1.0672578 c 1.804687,-1.1835938 2.683593,-2.4609375 2.683593,-3.8554688 0,-1.3945312 -0.726562,-2.0859375 -2.179687,-2.0859375 -0.902344,0 -1.804687,0.421875 -2.25,1.0664063 l 0.667969,0.6679687 c 0.410156,-0.5039062 1.03125,-0.8320312 1.558594,-0.8320312 0.785156,0 1.183593,0.3867187 1.183593,1.1835937 0,1.359375 -1.054687,2.6367188 -3.1875,3.8085938 z m 7.59668,0.0937500025 c 1.640625,0 2.578125,-0.703125 2.578125,-1.94531254 0,-0.9960937 -0.632813,-1.6289062 -1.582031,-1.7929687 v -0.1054688 c 0.855468,-0.2226562 1.441406,-0.8789062 1.441406,-1.7109375 0,-0.984375 -0.714844,-1.546875 -1.980469,-1.546875 -0.960937,0 -1.746094,0.2929688 -2.34375,0.9726563 l 0.667969,0.6679687 c 0.492187,-0.4921875 1.078125,-0.7382812 1.570312,-0.7382812 0.679688,0 1.066407,0.328125 1.066407,0.890625 0,0.703125 -0.65625,1.21875 -2.179688,1.4179687 l 0.117188,0.6328125 h 0.152343 c 1.3125,0 2.050782,0.4453125 2.050782,1.21875 0,0.7265625 -0.585938,1.14843754 -1.59375,1.14843754 -0.761719,0 -1.21875,-0.15234375 -1.605469,-0.26953124 l -0.128906,0.92578124 c 0.457031,0.1406249975 1.054687,0.234375 1.769531,0.234375 z m 5.835937,0 c 1.640625,0 2.578125,-0.703125 2.578125,-1.94531254 0,-0.9960937 -0.632812,-1.6289062 -1.582031,-1.7929687 v -0.1054688 c 0.855469,-0.2226562 1.441406,-0.8789062 1.441406,-1.7109375 0,-0.984375 -0.714843,-1.546875 -1.980468,-1.546875 -0.960938,0 -1.746094,0.2929688 -2.34375,0.9726563 l 0.667968,0.6679687 c 0.492188,-0.4921875 1.078125,-0.7382812 1.570313,-0.7382812 0.679687,0 1.066406,0.328125 1.066406,0.890625 0,0.703125 -0.65625,1.21875 -2.179687,1.4179687 l 0.117187,0.6328125 h 0.152344 c 1.3125,0 2.050781,0.4453125 2.050781,1.21875 0,0.7265625 -0.585937,1.14843754 -1.59375,1.14843754 -0.761719,0 -1.21875,-0.15234375 -1.605469,-0.26953124 l -0.128906,0.92578124 c 0.457031,0.1406249975 1.054688,0.234375 1.769531,0.234375 z m 4.22168,-0.0937500025 h 1.007813 V -2.7078828 h 2.683593 v -0.9257813 h -2.683593 v -2.34375 h 3.5625 v -0.9257812 h -4.570313 z m 0,0"
       style="fill:#1a1416;fill-opacity:1;fill-rule:nonzero;stroke:none"
       aria-label="C5233F"
       transform="matrix(1.3333333,0,0,1.3333333,4.9986667,18.770667)" />
    <path
       id="path3"
       d="m 0.19925,-56.89284 h 42.5202 v 21.26009 H 0.19925 Z"
       style="fill:#dc2c48;fill-opacity:1;fill-rule:nonzero;stroke:none"
       transform="matrix(1.3333333,0,0,-1.3333333,-0.26533333,-19.164)" />
    <path
       id="path4"
       d="m 0.6806875,-1.09375e-4 h 1.6757813 c 2.109375,0 3.1640625,-1.113281225 3.1640625,-3.351562525 0,-2.3789062 -1.0546875,-3.5507812 -3.1640625,-3.5507812 H 0.6806875 Z M 1.6885,-0.92589063 V -5.9766719 h 0.6679688 c 1.4179687,0 2.1328125,0.8671875 2.1328125,2.625 0,1.6171875 -0.7148438,2.42578127 -2.1328125,2.42578127 z m 7.78125,1.01953125 c 0.621094,0 1.207031,-0.10546875 1.78125,-0.328125 L 11.028344,-1.0899531 c -0.457031,0.19921872 -0.914063,0.29296872 -1.3828127,0.29296872 -1.5585938,0 -2.34375,-0.90234372 -2.34375,-2.71875002 0,-1.6523437 0.8085937,-2.5898437 2.0625,-2.5898437 0.5273437,0 0.9960937,0.2460937 1.2890627,0.6914062 l 0.726562,-0.7148437 c -0.328125,-0.5625 -1.066406,-0.8789063 -2.0273435,-0.8789063 -1.96875,0 -3.09375,1.3007813 -3.09375,3.5390625 0,2.3789063 1.078125,3.56250002 3.2109375,3.56250002 z m 2.941406,-0.093749995 h 4.5 V -0.92589063 H 13.934594 V -1.0665156 c 1.804687,-1.1835938 2.683593,-2.4609375 2.683593,-3.8554688 0,-1.3945312 -0.726562,-2.0859375 -2.179687,-2.0859375 -0.902344,0 -1.804687,0.421875 -2.25,1.0664063 l 0.667969,0.6679687 c 0.410156,-0.5039062 1.03125,-0.8320312 1.558594,-0.8320312 0.785156,0 1.183593,0.3867187 1.183593,1.1835937 0,1.359375 -1.054687,2.6367188 -3.1875,3.8085938 z m 8.733399,0.093749995 c 0.621093,0 1.207031,-0.10546875 1.78125,-0.328125 L 22.703148,-1.0899531 c -0.457031,0.19921872 -0.914062,0.29296872 -1.382812,0.29296872 -1.558594,0 -2.34375,-0.90234372 -2.34375,-2.71875002 0,-1.6523437 0.808594,-2.5898437 2.0625,-2.5898437 0.527344,0 0.996094,0.2460937 1.289062,0.6914062 l 0.726563,-0.7148437 c -0.328125,-0.5625 -1.066406,-0.8789063 -2.027344,-0.8789063 -1.96875,0 -3.09375,1.3007813 -3.09375,3.5390625 0,2.3789063 1.078125,3.56250002 3.210938,3.56250002 z m 2.566406,-1.64062502 h 3.421875 v 1.546875025 h 1.007812 V -1.5469844 h 0.65625 v -0.9023437 h -0.65625 v -4.453125 h -1.007812 v 4.453125 h -2.203125 l 0.796875,-4.0664063 h -1.042969 z m 8.393555,1.64062502 c 1.5,0 2.355468,-0.7265625 2.355468,-1.99218752 0,-0.9257812 -0.550781,-1.5351562 -1.535156,-1.734375 v -0.082031 c 0.855469,-0.1992188 1.335938,-0.7382813 1.335938,-1.5351563 0,-1.1132812 -0.785157,-1.7578125 -2.15625,-1.7578125 -1.371094,0 -2.15625,0.6445313 -2.15625,1.7578125 0,0.8085938 0.480468,1.3476563 1.347656,1.5351563 v 0.082031 c -0.996094,0.1992188 -1.546875,0.8085938 -1.546875,1.734375 0,1.26562502 0.855469,1.99218752 2.355469,1.99218752 z m 0,-0.890625 c -0.855469,0 -1.335938,-0.42187502 -1.335938,-1.14843752 0,-0.7734375 0.480469,-1.2304687 1.335938,-1.2304687 0.855468,0 1.335937,0.4570312 1.335937,1.2304687 0,0.7265625 -0.480469,1.14843752 -1.335937,1.14843752 z m 0,-3.31640622 c -0.726563,0 -1.136719,-0.3515625 -1.136719,-0.9492188 0,-0.6679687 0.410156,-1.0429687 1.136719,-1.0429687 0.726562,0 1.136718,0.375 1.136718,1.0429687 0,0.5976563 -0.410156,0.9492188 -1.136718,0.9492188 z m 0,0"
       style="fill:#1a1416;fill-opacity:1;fill-rule:nonzero;stroke:none"
       aria-label="DC2C48"
       transform="matrix(1.3333333,0,0,1.3333333,4.9986667,47.117333)" />
    <path
       id="path5"
       d="m 0.19925,-78.15295 h 42.5202 v 21.26009 H 0.19925 Z"
       style="fill:#e94c66;fill-opacity:1;fill-rule:nonzero;stroke:none"
       transform="matrix(1.3333333,0,0,-1.3333333,-0.26533333,-19.164)" />
    <path
       id="path6"
       d="M 0.7744375,6.328125e-4 H 5.3564688 V -0.92514844 h -3.5625 V -2.9993672 H 4.4775625 V -3.9251484 H 1.7939688 v -2.0507813 h 3.5625 V -6.9017109 H 0.7744375 Z M 8.2861563,-2.4603047 c 0.84375,0 1.453125,-0.4101562 1.640625,-1.125 h 0.09375 c 0,1.7578125 -1.0195307,2.67187501 -3.0820307,2.75390626 l 0.09375,0.92578125 C 9.7744378,-0.03452344 11.098656,-1.4056172 11.098656,-4.0423359 v -0.4335938 c 0,-1.6875 -0.738281,-2.4609375 -2.3320307,-2.4609375 -1.4882812,0 -2.3671875,0.8671875 -2.3671875,2.3320313 0,1.3710937 0.6796875,2.1445312 1.8867185,2.1445312 z m 0.3632812,-0.890625 c -0.7851562,0 -1.2304687,-0.4570312 -1.2304687,-1.2539062 0,-0.9023438 0.4921875,-1.4296875 1.3125,-1.4296875 0.8320312,0 1.3242192,0.4921875 1.3242192,1.3359375 0,0.8554687 -0.5039067,1.3476562 -1.4062505,1.3476562 z m 3.3867185,1.8046875 h 3.421875 V 6.328125e-4 h 1.007813 V -1.5462422 h 0.65625 v -0.9023437 h -0.65625 v -4.453125 h -1.007813 v 4.453125 h -2.203125 l 0.796875,-4.0664063 h -1.042968 z m 9.108399,1.64062501 c 0.621093,0 1.207031,-0.10546875 1.78125,-0.328125 L 22.703148,-1.0892109 c -0.457031,0.19921871 -0.914062,0.29296871 -1.382812,0.29296871 -1.558594,0 -2.34375,-0.90234371 -2.34375,-2.71875001 0,-1.6523437 0.808594,-2.5898437 2.0625,-2.5898437 0.527344,0 0.996094,0.2460937 1.289062,0.6914062 l 0.726563,-0.7148437 c -0.328125,-0.5625 -1.066406,-0.8789063 -2.027344,-0.8789063 -1.96875,0 -3.09375,1.3007813 -3.09375,3.5390625 0,2.3789063 1.078125,3.56250001 3.210938,3.56250001 z m 5.15625,0 c 1.488281,0 2.367187,-0.8671875 2.367187,-2.33203121 0,-1.359375 -0.679687,-2.1445313 -1.886719,-2.1445313 -0.832031,0 -1.453125,0.4101563 -1.640625,1.1367188 h -0.09375 c 0.01172,-1.7695313 1.019532,-2.6835938 3.082032,-2.765625 l -0.09375,-0.9257813 c -2.742188,0.140625 -4.066407,1.5117188 -4.066407,4.1484375 v 0.421875 c 0,1.68750001 0.738282,2.46093751 2.332032,2.46093751 z m 0.03516,-0.890625 c -0.832031,0 -1.324219,-0.50390621 -1.324219,-1.34765621 0,-0.8554688 0.503906,-1.3359375 1.40625,-1.3359375 0.796875,0 1.230469,0.4453125 1.230469,1.2421875 0,0.9023437 -0.492188,1.44140621 -1.3125,1.44140621 z m 5.803711,0.890625 c 1.488281,0 2.367187,-0.8671875 2.367187,-2.33203121 0,-1.359375 -0.679687,-2.1445313 -1.886718,-2.1445313 -0.832032,0 -1.453125,0.4101563 -1.640625,1.1367188 h -0.09375 c 0.01172,-1.7695313 1.019531,-2.6835938 3.082031,-2.765625 l -0.09375,-0.9257813 c -2.742188,0.140625 -4.066406,1.5117188 -4.066406,4.1484375 v 0.421875 c 0,1.68750001 0.738281,2.46093751 2.332031,2.46093751 z m 0.03516,-0.890625 c -0.832031,0 -1.324219,-0.50390621 -1.324219,-1.34765621 0,-0.8554688 0.503907,-1.3359375 1.40625,-1.3359375 0.796875,0 1.230469,0.4453125 1.230469,1.2421875 0,0.9023437 -0.492187,1.44140621 -1.3125,1.44140621 z m 0,0"
       style="fill:#1a1416;fill-opacity:1;fill-rule:nonzero;stroke:none"
       aria-label="E94C66"
       transform="matrix(1.3333333,0,0,1.3333333,4.9986667,75.464)" />
    <path
       id="path7"
       d="m 45.5543,-35.63274 h 42.5202 v 21.26009 H 45.5543 Z"
       style="fill:#e2bb36;fill-opacity:1;fill-rule:nonzero;stroke:none"
       transform="matrix(1.3333333,0,0,-1.3333333,-0.26533333,-19.164)" />
    <path
       id="path8"
       d="M 0.772,-8.515625e-4 H 5.3540313 V -0.92663281 h -3.5625 V -3.0008516 H 4.475125 V -3.9266328 H 1.7915313 v -2.0507813 h 3.5625 V -6.9031953 H 0.772 Z m 5.8037109,0 H 11.075711 V -0.92663281 H 8.0991484 V -1.0672578 c 1.8046875,-1.1835938 2.6835936,-2.4609375 2.6835936,-3.8554688 0,-1.3945312 -0.726562,-2.0859375 -2.1796873,-2.0859375 -0.9023438,0 -1.8046875,0.421875 -2.25,1.0664063 l 0.6679687,0.6679687 c 0.4101563,-0.5039062 1.03125,-0.8320312 1.5585938,-0.8320312 0.7851562,0 1.1835937,0.3867187 1.1835937,1.1835937 0,1.359375 -1.0546875,2.6367188 -3.1875,3.8085938 z m 5.8710941,0 h 2.648437 c 1.335938,0 2.097656,-0.6914062475 2.097656,-1.8984375375 0,-1.078125 -0.773437,-1.7109375 -2.144531,-1.734375 v -0.058594 c 1.066406,-0.1054688 1.652344,-0.6210938 1.652344,-1.4648438 0,-1.1132812 -0.796875,-1.7460937 -2.191406,-1.7460937 h -2.0625 z M 13.466336,-0.92663281 V -3.1883516 h 1.277344 c 0.914062,0 1.417968,0.421875 1.417968,1.1484375 0,0.703125 -0.492187,1.11328129 -1.347656,1.11328129 z m 0,-3.18749999 v -1.8632813 h 0.984375 c 0.785156,0 1.230469,0.328125 1.230469,0.9140625 0,0.609375 -0.421875,0.9492188 -1.160157,0.9492188 z m 4.819336,4.1132812375 h 2.648437 c 1.335938,0 2.097657,-0.6914062475 2.097657,-1.8984375375 0,-1.078125 -0.773438,-1.7109375 -2.144532,-1.734375 v -0.058594 c 1.066407,-0.1054688 1.652344,-0.6210938 1.652344,-1.4648438 0,-1.1132812 -0.796875,-1.7460937 -2.191406,-1.7460937 h -2.0625 z M 19.305203,-0.92663281 V -3.1883516 h 1.277344 c 0.914062,0 1.417969,0.421875 1.417969,1.1484375 0,0.703125 -0.492188,1.11328129 -1.347657,1.11328129 z m 0,-3.18749999 v -1.8632813 h 0.984375 c 0.785156,0 1.230469,0.328125 1.230469,0.9140625 0,0.609375 -0.421875,0.9492188 -1.160156,0.9492188 z m 6.539063,4.20703124 c 1.640625,0 2.578125,-0.703125 2.578125,-1.94531254 0,-0.9960937 -0.632813,-1.6289062 -1.582032,-1.7929687 v -0.1054688 c 0.855469,-0.2226562 1.441407,-0.8789062 1.441407,-1.7109375 0,-0.984375 -0.714844,-1.546875 -1.980469,-1.546875 -0.960938,0 -1.746094,0.2929688 -2.34375,0.9726563 l 0.667969,0.6679687 c 0.492187,-0.4921875 1.078125,-0.7382812 1.570312,-0.7382812 0.679688,0 1.066406,0.328125 1.066406,0.890625 0,0.703125 -0.65625,1.21875 -2.179687,1.4179687 l 0.117187,0.6328125 h 0.152344 c 1.3125,0 2.050781,0.4453125 2.050781,1.21875 0,0.7265625 -0.585937,1.14843754 -1.59375,1.14843754 -0.761718,0 -1.21875,-0.15234375 -1.605468,-0.26953124 l -0.128907,0.92578124 c 0.457032,0.1406249975 1.054688,0.234375 1.769532,0.234375 z m 6.292968,0 c 1.488282,0 2.367188,-0.8671875 2.367188,-2.33203124 0,-1.359375 -0.679688,-2.1445313 -1.886719,-2.1445313 -0.832031,0 -1.453125,0.4101563 -1.640625,1.1367188 h -0.09375 c 0.01172,-1.7695313 1.019531,-2.6835938 3.082031,-2.765625 l -0.09375,-0.9257813 c -2.742187,0.140625 -4.066406,1.5117188 -4.066406,4.1484375 v 0.421875 c 0,1.68750004 0.738281,2.46093754 2.332031,2.46093754 z m 0.03516,-0.890625 c -0.832032,0 -1.324219,-0.50390624 -1.324219,-1.34765624 0,-0.8554688 0.503906,-1.3359375 1.40625,-1.3359375 0.796875,0 1.230469,0.4453125 1.230469,1.2421875 0,0.9023437 -0.492188,1.44140624 -1.3125,1.44140624 z m 0,0"
       style="fill:#1a1416;fill-opacity:1;fill-rule:nonzero;stroke:none"
       aria-label="E2BB36"
       transform="matrix(1.3333333,0,0,1.3333333,65.470667,18.770667)" />
    <path
       id="path9"
       d="m 45.5543,-56.89284 h 42.5202 v 21.26009 H 45.5543 Z"
       style="fill:#e9c946;fill-opacity:1;fill-rule:nonzero;stroke:none"
       transform="matrix(1.3333333,0,0,-1.3333333,-0.26533333,-19.164)" />
    <path
       id="path10"
       d="M 0.772,-1.09375e-4 H 5.3540313 V -0.92589063 h -3.5625 V -3.0001094 H 4.475125 V -3.9258906 H 1.7915313 v -2.0507813 h 3.5625 V -6.9024531 H 0.772 Z M 8.2866484,-2.4610469 c 0.84375,0 1.453125,-0.4101562 1.640625,-1.125 h 0.09375 c 0,1.7578125 -1.0195304,2.67187502 -3.0820304,2.75390627 l 0.09375,0.92578125 C 9.7749297,-0.03526563 11.099148,-1.4063594 11.099148,-4.0430781 v -0.4335938 c 0,-1.6875 -0.738281,-2.4609375 -2.3320308,-2.4609375 -1.4882813,0 -2.3671875,0.8671875 -2.3671875,2.3320313 0,1.3710937 0.6796875,2.1445312 1.8867187,2.1445312 z m 0.3632813,-0.890625 c -0.7851563,0 -1.2304688,-0.4570312 -1.2304688,-1.2539062 0,-0.9023438 0.4921875,-1.4296875 1.3125,-1.4296875 0.8320313,0 1.3242191,0.4921875 1.3242191,1.3359375 0,0.8554687 -0.5039066,1.3476562 -1.4062503,1.3476562 z M 15.30618,0.09364062 c 0.621093,0 1.207031,-0.10546875 1.78125,-0.328125 L 16.864773,-1.0899531 c -0.457031,0.19921872 -0.914062,0.29296872 -1.382812,0.29296872 -1.558594,0 -2.34375,-0.90234372 -2.34375,-2.71875002 0,-1.6523437 0.808594,-2.5898437 2.0625,-2.5898437 0.527344,0 0.996094,0.2460937 1.289062,0.6914062 l 0.726563,-0.7148437 c -0.328125,-0.5625 -1.066406,-0.8789063 -2.027344,-0.8789063 -1.96875,0 -3.09375,1.3007813 -3.09375,3.5390625 0,2.3789063 1.078125,3.56250002 3.210938,3.56250002 z m 4.655273,-2.55468752 c 0.84375,0 1.453125,-0.4101562 1.640625,-1.125 h 0.09375 c 0,1.7578125 -1.019531,2.67187502 -3.082031,2.75390627 l 0.09375,0.92578125 c 2.742187,-0.12890625 4.066406,-1.50000002 4.066406,-4.13671872 v -0.4335938 c 0,-1.6875 -0.738281,-2.4609375 -2.332031,-2.4609375 -1.488281,0 -2.367188,0.8671875 -2.367188,2.3320313 0,1.3710937 0.679688,2.1445312 1.886719,2.1445312 z m 0.363281,-0.890625 c -0.785156,0 -1.230468,-0.4570312 -1.230468,-1.2539062 0,-0.9023438 0.492187,-1.4296875 1.3125,-1.4296875 0.832031,0 1.324218,0.4921875 1.324218,1.3359375 0,0.8554687 -0.503906,1.3476562 -1.40625,1.3476562 z m 3.386719,1.8046875 h 3.421875 v 1.546875025 h 1.007813 V -1.5469844 h 0.65625 v -0.9023437 h -0.65625 v -4.453125 h -1.007813 v 4.453125 h -2.203125 l 0.796875,-4.0664063 h -1.042969 z m 8.425781,1.64062502 c 1.488282,0 2.367188,-0.8671875 2.367188,-2.33203122 0,-1.359375 -0.679688,-2.1445313 -1.886719,-2.1445313 -0.832031,0 -1.453125,0.4101563 -1.640625,1.1367188 h -0.09375 c 0.01172,-1.7695313 1.019531,-2.6835938 3.082031,-2.765625 l -0.09375,-0.9257813 c -2.742187,0.140625 -4.066406,1.5117188 -4.066406,4.1484375 v 0.421875 c 0,1.68750002 0.738281,2.46093752 2.332031,2.46093752 z m 0.03516,-0.890625 c -0.832032,0 -1.324219,-0.50390622 -1.324219,-1.34765622 0,-0.8554688 0.503906,-1.3359375 1.40625,-1.3359375 0.796875,0 1.230469,0.4453125 1.230469,1.2421875 0,0.9023437 -0.492188,1.44140622 -1.3125,1.44140622 z m 0,0"
       style="fill:#1a1416;fill-opacity:1;fill-rule:nonzero;stroke:none"
       aria-label="E9C946"
       transform="matrix(1.3333333,0,0,1.3333333,65.470667,47.117333)" />
    <path
       id="path11"
       d="m 45.5543,-78.15295 h 42.5202 v 21.26009 H 45.5543 Z"
       style="fill:#f3d870;fill-opacity:1;fill-rule:nonzero;stroke:none"
       transform="matrix(1.3333333,0,0,-1.3333333,-0.26533333,-19.164)" />
    <path
       id="path12"
       d="M 0.87746875,6.328125e-4 H 1.8852813 V -2.7063984 H 4.568875 V -3.6321797 H 1.8852813 v -2.34375 h 3.5625 V -6.9017109 H 0.87746875 Z M 8.3335234,0.09438281 c 1.640625,0 2.5781246,-0.703125 2.5781246,-1.94531251 0,-0.9960937 -0.632812,-1.6289062 -1.5820308,-1.7929687 v -0.1054688 c 0.8554688,-0.2226562 1.4414058,-0.8789062 1.4414058,-1.7109375 0,-0.984375 -0.714843,-1.546875 -1.9804683,-1.546875 -0.9609375,0 -1.7460938,0.2929688 -2.34375,0.9726563 l 0.6679687,0.6679687 c 0.4921875,-0.4921875 1.078125,-0.7382812 1.5703125,-0.7382812 0.6796875,0 1.0664063,0.328125 1.0664063,0.890625 0,0.703125 -0.65625,1.21875 -2.1796875,1.4179687 l 0.1171875,0.6328125 h 0.1523437 c 1.3125,0 2.0507813,0.4453125 2.0507813,1.21875 0,0.7265625 -0.5859375,1.14843751 -1.59375,1.14843751 -0.7617188,0 -1.21875,-0.15234375 -1.6054688,-0.26953121 l -0.1289062,0.92578121 c 0.4570312,0.1406250025 1.0546875,0.234375 1.7695312,0.234375 z M 12.353055,6.328125e-4 h 1.675781 c 2.109375,0 3.164062,-1.1132812125 3.164062,-3.3515625125 0,-2.3789062 -1.054687,-3.5507812 -3.164062,-3.5507812 H 12.353055 Z M 13.360867,-0.92514844 V -5.9759297 h 0.667969 c 1.417969,0 2.132812,0.8671875 2.132812,2.625 0,1.6171875 -0.714843,2.42578126 -2.132812,2.42578126 z m 7.069336,1.01953125 c 1.5,0 2.355469,-0.7265625 2.355469,-1.99218751 0,-0.9257812 -0.550781,-1.5351562 -1.535156,-1.734375 v -0.082031 c 0.855468,-0.1992188 1.335937,-0.7382813 1.335937,-1.5351563 0,-1.1132812 -0.785156,-1.7578125 -2.15625,-1.7578125 -1.371094,0 -2.15625,0.6445313 -2.15625,1.7578125 0,0.8085938 0.480469,1.3476563 1.347656,1.5351563 v 0.082031 c -0.996093,0.1992188 -1.546875,0.8085938 -1.546875,1.734375 0,1.26562501 0.855469,1.99218751 2.355469,1.99218751 z m 0,-0.890625 c -0.855469,0 -1.335937,-0.42187501 -1.335937,-1.14843751 0,-0.7734375 0.480468,-1.2304687 1.335937,-1.2304687 0.855469,0 1.335938,0.4570312 1.335938,1.2304687 0,0.7265625 -0.480469,1.14843751 -1.335938,1.14843751 z m 0,-3.31640621 c -0.726562,0 -1.136719,-0.3515625 -1.136719,-0.9492188 0,-0.6679687 0.410157,-1.0429687 1.136719,-1.0429687 0.726563,0 1.136719,0.375 1.136719,1.0429687 0,0.5976563 -0.410156,0.9492188 -1.136719,0.9492188 z m 5.039063,4.1132812125 h 1.113281 L 28.961453,-6.9017109 h -5.074219 v 2.4140625 h 1.042969 v -1.4882813 h 2.601563 z M 32.102078,0.09438281 c 1.570313,0 2.355469,-1.14843751 2.355469,-3.50390621 0,-2.4023438 -0.785156,-3.5976563 -2.355469,-3.5976563 -1.570312,0 -2.355469,1.1953125 -2.355469,3.5976563 0,2.3554687 0.785157,3.50390621 2.355469,3.50390621 z m 0,-0.890625 c -0.878906,0 -1.3125,-0.86718751 -1.3125,-2.61328121 0,-1.8046875 0.433594,-2.6953125 1.3125,-2.6953125 0.878906,0 1.3125,0.890625 1.3125,2.6953125 0,1.7460937 -0.433594,2.61328121 -1.3125,2.61328121 z m 0,-1.87500001 c 0.433594,0 0.726563,-0.2929687 0.726563,-0.7382812 0,-0.4335938 -0.292969,-0.7265625 -0.726563,-0.7265625 -0.433594,0 -0.726562,0.2929687 -0.726562,0.7265625 0,0.4453125 0.292968,0.7382812 0.726562,0.7382812 z m 0,0"
       style="fill:#1a1416;fill-opacity:1;fill-rule:nonzero;stroke:none"
       aria-label="F3D870"
       transform="matrix(1.3333333,0,0,1.3333333,65.470667,75.464)" />
    <path
       id="path13"
       d="m 90.90895,-35.63274 h 42.5202 v 21.26009 h -42.5202 z"
       style="fill:#29a245;fill-opacity:1;fill-rule:nonzero;stroke:none"
       transform="matrix(1.3333333,0,0,-1.3333333,-0.26533333,-19.164)" />
    <path
       id="path14"
       d="M 0.73733594,-8.515625e-4 H 5.2373359 V -0.92663281 H 2.2607734 V -1.0672578 c 1.8046875,-1.1835938 2.6835938,-2.4609375 2.6835938,-3.8554688 0,-1.3945312 -0.7265625,-2.0859375 -2.1796875,-2.0859375 -0.9023438,0 -1.80468751,0.421875 -2.25000001,1.0664063 l 0.66796871,0.6679687 c 0.4101563,-0.5039062 1.03125,-0.8320312 1.5585938,-0.8320312 0.7851562,0 1.1835937,0.3867187 1.1835937,1.1835937 0,1.359375 -1.0546875,2.6367188 -3.18749996,3.8085938 z M 8.2871406,-2.4617891 c 0.84375,0 1.453125,-0.4101562 1.640625,-1.125 h 0.09375 c 0,1.7578125 -1.019532,2.67187504 -3.082032,2.75390629 l 0.09375,0.92578125 c 2.7421879,-0.12890625 4.066407,-1.50000004 4.066407,-4.13671874 v -0.4335938 c 0,-1.6875 -0.738282,-2.4609375 -2.3320316,-2.4609375 -1.4882813,0 -2.3671875,0.8671875 -2.3671875,2.3320313 0,1.3710937 0.6796875,2.1445312 1.8867187,2.1445312 z m 0.3632813,-0.890625 c -0.7851563,0 -1.2304688,-0.4570312 -1.2304688,-1.2539062 0,-0.9023438 0.4921875,-1.4296875 1.3125,-1.4296875 0.8320313,0 1.3242189,0.4921875 1.3242189,1.3359375 0,0.8554687 -0.5039064,1.3476562 -1.4062501,1.3476562 z m 3.2460941,3.3515625375 h 1.019531 L 13.361359,-1.6883516 h 2.460938 l 0.445312,1.6875000375 h 1.019532 L 15.294953,-6.9031953 h -1.40625 z m 1.722656,-2.6015625375 0.925781,-3.46875 h 0.09375 l 0.925781,3.46875 z m 4.631836,2.6015625375 h 4.5 V -0.92663281 H 19.774445 V -1.0672578 c 1.804688,-1.1835938 2.683594,-2.4609375 2.683594,-3.8554688 0,-1.3945312 -0.726562,-2.0859375 -2.179687,-2.0859375 -0.902344,0 -1.804688,0.421875 -2.25,1.0664063 l 0.667968,0.6679687 c 0.410157,-0.5039062 1.03125,-0.8320312 1.558594,-0.8320312 0.785156,0 1.183594,0.3867187 1.183594,1.1835937 0,1.359375 -1.054688,2.6367188 -3.1875,3.8085938 z M 23.711945,-1.5477266 h 3.421875 v 1.5468750375 h 1.007813 V -1.5477266 h 0.65625 v -0.9023437 h -0.65625 v -4.453125 H 27.13382 v 4.453125 h -2.203125 l 0.796875,-4.0664063 h -1.042968 z m 8.460938,1.64062504 c 1.476562,0 2.332031,-0.84375 2.332031,-2.32031254 0,-1.453125 -0.761719,-2.2734375 -2.097656,-2.2734375 -0.375,0 -0.738281,0.035156 -1.101563,0.1757813 l 0.04687,-1.6757813 h 2.71875 v -0.9023437 h -3.726562 l -0.105469,3.5976562 h 0.550781 c 0.398438,-0.2109375 0.820313,-0.328125 1.277344,-0.328125 0.902344,0 1.417969,0.515625 1.417969,1.40625 0,0.9140625 -0.46875,1.42968754 -1.300781,1.42968754 -0.84375,0 -1.3125,-0.42187504 -1.3125,-1.13671874 h -1.042969 c 0,1.28906249 0.84375,2.02734374 2.34375,2.02734374 z m 0,0"
       style="fill:#1a1416;fill-opacity:1;fill-rule:nonzero;stroke:none"
       aria-label="29A245"
       transform="matrix(1.3333333,0,0,1.3333333,125.94267,18.770667)" />
    <path
       id="path15"
       d="m 90.90895,-56.89284 h 42.5202 v 21.26009 h -42.5202 z"
       style="fill:#33b34e;fill-opacity:1;fill-rule:nonzero;stroke:none"
       transform="matrix(1.3333333,0,0,-1.3333333,-0.26533333,-19.164)" />
    <path
       id="path16"
       d="m 2.4951484,0.09364062 c 1.640625,0 2.578125,-0.703125 2.578125,-1.94531252 0,-0.9960937 -0.6328125,-1.6289062 -1.5820312,-1.7929687 v -0.1054688 c 0.8554687,-0.2226562 1.4414062,-0.8789062 1.4414062,-1.7109375 0,-0.984375 -0.7148437,-1.546875 -1.9804687,-1.546875 -0.9609375,0 -1.7460938,0.2929688 -2.34375001,0.9726563 l 0.66796871,0.6679687 c 0.4921875,-0.4921875 1.078125,-0.7382812 1.5703125,-0.7382812 0.6796875,0 1.0664063,0.328125 1.0664063,0.890625 0,0.703125 -0.65625,1.21875 -2.1796875,1.4179687 l 0.1171875,0.6328125 h 0.1523437 c 1.3125,0 2.0507813,0.4453125 2.0507813,1.21875 0,0.7265625 -0.5859375,1.14843752 -1.59375,1.14843752 -0.7617188,0 -1.21875,-0.15234375 -1.60546876,-0.26953122 l -0.12890625,0.92578122 c 0.45703121,0.140625005 1.05468751,0.234375 1.76953121,0.234375 z m 5.8388672,0 c 1.640625,0 2.5781254,-0.703125 2.5781254,-1.94531252 0,-0.9960937 -0.632813,-1.6289062 -1.5820316,-1.7929687 v -0.1054688 c 0.8554686,-0.2226562 1.4414066,-0.8789062 1.4414066,-1.7109375 0,-0.984375 -0.714844,-1.546875 -1.9804691,-1.546875 -0.9609375,0 -1.7460938,0.2929688 -2.34375,0.9726563 l 0.6679687,0.6679687 c 0.4921875,-0.4921875 1.078125,-0.7382812 1.5703125,-0.7382812 0.6796875,0 1.0664063,0.328125 1.0664063,0.890625 0,0.703125 -0.65625,1.21875 -2.1796875,1.4179687 l 0.1171875,0.6328125 h 0.1523437 c 1.3125,0 2.0507813,0.4453125 2.0507813,1.21875 0,0.7265625 -0.5859375,1.14843752 -1.59375,1.14843752 -0.7617188,0 -1.21875,-0.15234375 -1.6054688,-0.26953122 l -0.1289062,0.92578122 c 0.4570312,0.140625005 1.0546875,0.234375 1.7695312,0.234375 z M 12.447297,-1.09375e-4 h 2.648437 c 1.335938,0 2.097657,-0.691406255 2.097657,-1.898437525 0,-1.078125 -0.773438,-1.7109375 -2.144532,-1.734375 v -0.058594 c 1.066407,-0.1054688 1.652344,-0.6210938 1.652344,-1.4648438 0,-1.1132812 -0.796875,-1.7460937 -2.191406,-1.7460937 h -2.0625 z M 13.466828,-0.92589063 V -3.1876094 h 1.277344 c 0.914062,0 1.417969,0.421875 1.417969,1.1484375 0,0.703125 -0.492188,1.11328127 -1.347657,1.11328127 z m 0,-3.18749997 v -1.8632813 h 0.984375 c 0.785156,0 1.230469,0.328125 1.230469,0.9140625 0,0.609375 -0.421875,0.9492188 -1.160156,0.9492188 z m 6.541992,4.20703122 c 1.640625,0 2.578125,-0.703125 2.578125,-1.94531252 0,-0.9960937 -0.632812,-1.6289062 -1.582031,-1.7929687 v -0.1054688 c 0.855469,-0.2226562 1.441406,-0.8789062 1.441406,-1.7109375 0,-0.984375 -0.714843,-1.546875 -1.980468,-1.546875 -0.960938,0 -1.746094,0.2929688 -2.34375,0.9726563 l 0.667968,0.6679687 c 0.492188,-0.4921875 1.078125,-0.7382812 1.570313,-0.7382812 0.679687,0 1.066406,0.328125 1.066406,0.890625 0,0.703125 -0.65625,1.21875 -2.179687,1.4179687 l 0.117187,0.6328125 h 0.152344 c 1.3125,0 2.050781,0.4453125 2.050781,1.21875 0,0.7265625 -0.585937,1.14843752 -1.59375,1.14843752 -0.761719,0 -1.21875,-0.15234375 -1.605469,-0.26953122 l -0.128906,0.92578122 c 0.457031,0.140625005 1.054688,0.234375 1.769531,0.234375 z m 3.703125,-1.64062502 h 3.421875 v 1.546875025 h 1.007813 V -1.5469844 h 0.65625 v -0.9023437 h -0.65625 v -4.453125 H 27.13382 v 4.453125 h -2.203125 l 0.796875,-4.0664063 h -1.042968 z m 6.246094,1.546875025 H 34.54007 V -0.92589063 h -3.5625 V -3.0001094 h 2.683594 V -3.9258906 H 30.97757 v -2.0507813 h 3.5625 v -0.9257812 h -4.582031 z m 0,0"
       style="fill:#1a1416;fill-opacity:1;fill-rule:nonzero;stroke:none"
       aria-label="33B34E"
       transform="matrix(1.3333333,0,0,1.3333333,125.94267,47.117333)" />
    <path
       id="path17"
       d="m 90.90895,-78.15295 h 42.5202 v 21.26009 h -42.5202 z"
       style="fill:#42cc60;fill-opacity:1;fill-rule:nonzero;stroke:none"
       transform="matrix(1.3333333,0,0,-1.3333333,-0.26533333,-19.164)" />
    <path
       id="path18"
       d="M 0.36233594,-1.5462422 H 3.7842109 V 6.328125e-4 H 4.7920234 V -1.5462422 h 0.65625 v -0.9023437 h -0.65625 v -4.453125 H 3.7842109 v 4.453125 h -2.203125 l 0.796875,-4.0664063 H 1.3349922 Z M 6.5762031,6.328125e-4 H 11.076203 V -0.92514844 H 8.0996406 V -1.0657734 c 1.8046875,-1.1835938 2.6835934,-2.4609375 2.6835934,-3.8554688 0,-1.3945312 -0.726562,-2.0859375 -2.1796871,-2.0859375 -0.9023438,0 -1.8046875,0.421875 -2.25,1.0664063 l 0.6679687,0.6679687 c 0.4101563,-0.5039062 1.03125,-0.8320312 1.5585938,-0.8320312 0.7851562,0 1.1835937,0.3867187 1.1835937,1.1835937 0,1.359375 -1.0546875,2.6367188 -3.1875,3.8085938 z M 15.306672,0.09438281 c 0.621094,0 1.207031,-0.10546875 1.78125,-0.328125 L 16.865266,-1.0892109 c -0.457032,0.19921871 -0.914063,0.29296871 -1.382813,0.29296871 -1.558594,0 -2.34375,-0.90234371 -2.34375,-2.71875001 0,-1.6523437 0.808594,-2.5898437 2.0625,-2.5898437 0.527344,0 0.996094,0.2460937 1.289063,0.6914062 l 0.726562,-0.7148437 c -0.328125,-0.5625 -1.066406,-0.8789063 -2.027344,-0.8789063 -1.96875,0 -3.09375,1.3007813 -3.09375,3.5390625 0,2.3789063 1.078125,3.56250001 3.210938,3.56250001 z m 5.838867,0 c 0.621094,0 1.207031,-0.10546875 1.78125,-0.328125 L 22.704133,-1.0892109 c -0.457031,0.19921871 -0.914063,0.29296871 -1.382813,0.29296871 -1.558593,0 -2.34375,-0.90234371 -2.34375,-2.71875001 0,-1.6523437 0.808594,-2.5898437 2.0625,-2.5898437 0.527344,0 0.996094,0.2460937 1.289063,0.6914062 l 0.726562,-0.7148437 c -0.328125,-0.5625 -1.066406,-0.8789063 -2.027343,-0.8789063 -1.96875,0 -3.09375,1.3007813 -3.09375,3.5390625 0,2.3789063 1.078125,3.56250001 3.210937,3.56250001 z m 5.15625,0 c 1.488281,0 2.367188,-0.8671875 2.367188,-2.33203121 0,-1.359375 -0.679688,-2.1445313 -1.886719,-2.1445313 -0.832031,0 -1.453125,0.4101563 -1.640625,1.1367188 h -0.09375 c 0.01172,-1.7695313 1.019531,-2.6835938 3.082031,-2.765625 l -0.09375,-0.9257813 c -2.742187,0.140625 -4.066406,1.5117188 -4.066406,4.1484375 v 0.421875 c 0,1.68750001 0.738281,2.46093751 2.332031,2.46093751 z m 0.03516,-0.890625 c -0.832031,0 -1.324218,-0.50390621 -1.324218,-1.34765621 0,-0.8554688 0.503906,-1.3359375 1.40625,-1.3359375 0.796875,0 1.230468,0.4453125 1.230468,1.2421875 0,0.9023437 -0.492187,1.44140621 -1.3125,1.44140621 z m 5.765625,0.890625 c 1.570313,0 2.355469,-1.14843751 2.355469,-3.50390621 0,-2.4023438 -0.785156,-3.5976563 -2.355469,-3.5976563 -1.570312,0 -2.355468,1.1953125 -2.355468,3.5976563 0,2.3554687 0.785156,3.50390621 2.355468,3.50390621 z m 0,-0.890625 c -0.878906,0 -1.3125,-0.86718751 -1.3125,-2.61328121 0,-1.8046875 0.433594,-2.6953125 1.3125,-2.6953125 0.878907,0 1.3125,0.890625 1.3125,2.6953125 0,1.7460937 -0.433593,2.61328121 -1.3125,2.61328121 z m 0,-1.87500001 c 0.433594,0 0.726563,-0.2929687 0.726563,-0.7382812 0,-0.4335938 -0.292969,-0.7265625 -0.726563,-0.7265625 -0.433593,0 -0.726562,0.2929687 -0.726562,0.7265625 0,0.4453125 0.292969,0.7382812 0.726562,0.7382812 z m 0,0"
       style="fill:#1a1416;fill-opacity:1;fill-rule:nonzero;stroke:none"
       aria-label="42CC60"
       transform="matrix(1.3333333,0,0,1.3333333,125.94267,75.464)" />
    <path
       id="path19"
       d="m 136.264,-35.63274 h 42.5202 v 21.26009 H 136.264 Z"
       style="fill:#58aa9a;fill-opacity:1;fill-rule:nonzero;stroke:none"
       transform="matrix(1.3333333,0,0,-1.3333333,-0.26533333,-19.164)" />
    <path
       id="path20"
       d="m 2.9868281,0.09289844 c 1.4765625,0 2.3320313,-0.84375 2.3320313,-2.32031254 0,-1.453125 -0.7617188,-2.2734375 -2.0976563,-2.2734375 -0.375,0 -0.7382812,0.035156 -1.1015625,0.1757813 l 0.046875,-1.6757813 h 2.71875 V -6.9031953 H 1.1587031 l -0.1054687,3.5976562 h 0.5507812 c 0.3984375,-0.2109375 0.8203125,-0.328125 1.2773438,-0.328125 0.9023437,0 1.4179687,0.515625 1.4179687,1.40625 0,0.9140625 -0.46875,1.42968754 -1.3007812,1.42968754 -0.84375,0 -1.3125,-0.42187504 -1.3125,-1.13671874 H 0.64307812 c 0,1.28906249 0.84374998,2.02734374 2.34374998,2.02734374 z m 5.7685547,0 c 1.5000002,0 2.3554692,-0.7265625 2.3554692,-1.99218754 0,-0.9257812 -0.550782,-1.5351562 -1.5351567,-1.734375 v -0.082031 c 0.8554687,-0.1992188 1.3359377,-0.7382813 1.3359377,-1.5351563 0,-1.1132812 -0.785156,-1.7578125 -2.1562502,-1.7578125 -1.3710937,0 -2.15625,0.6445313 -2.15625,1.7578125 0,0.8085938 0.4804688,1.3476563 1.3476563,1.5351563 v 0.082031 c -0.9960938,0.1992188 -1.546875,0.8085938 -1.546875,1.734375 0,1.26562504 0.8554687,1.99218754 2.3554687,1.99218754 z m 0,-0.890625 c -0.8554687,0 -1.3359375,-0.42187504 -1.3359375,-1.14843754 0,-0.7734375 0.4804688,-1.2304687 1.3359375,-1.2304687 0.8554688,0 1.3359372,0.4570312 1.3359372,1.2304687 0,0.7265625 -0.4804684,1.14843754 -1.3359372,1.14843754 z m 0,-3.31640624 c -0.7265625,0 -1.1367187,-0.3515625 -1.1367187,-0.9492188 0,-0.6679687 0.4101562,-1.0429687 1.1367187,-1.0429687 0.7265625,0 1.1367188,0.375 1.1367188,1.0429687 0,0.5976563 -0.4101563,0.9492188 -1.1367188,0.9492188 z m 3.1406252,4.1132812375 h 1.019531 L 13.360852,-1.6883516 h 2.460937 l 0.445313,1.6875000375 h 1.019531 L 15.294445,-6.9031953 h -1.40625 z m 1.722656,-2.6015625375 0.925781,-3.46875 h 0.09375 l 0.925782,3.46875 z m 4.116211,2.6015625375 h 1.019531 L 19.199719,-1.6883516 h 2.460937 l 0.445313,1.6875000375 H 23.1255 L 21.133312,-6.9031953 h -1.40625 z m 1.722656,-2.6015625375 0.925781,-3.46875 h 0.09375 l 0.925782,3.46875 z m 6.339844,0.140625 c 0.84375,0 1.453125,-0.4101562 1.640625,-1.125 h 0.09375 c 0,1.7578125 -1.019531,2.67187504 -3.082031,2.75390629 l 0.09375,0.92578125 c 2.742187,-0.12890625 4.066406,-1.50000004 4.066406,-4.13671874 v -0.4335938 c 0,-1.6875 -0.738281,-2.4609375 -2.332031,-2.4609375 -1.488282,0 -2.367188,0.8671875 -2.367188,2.3320313 0,1.3710937 0.679688,2.1445312 1.886719,2.1445312 z m 0.363281,-0.890625 c -0.785156,0 -1.230469,-0.4570312 -1.230469,-1.2539062 0,-0.9023438 0.492188,-1.4296875 1.3125,-1.4296875 0.832032,0 1.324219,0.4921875 1.324219,1.3359375 0,0.8554687 -0.503906,1.3476562 -1.40625,1.3476562 z m 3.246094,3.3515625375 h 1.019531 L 30.871594,-1.6883516 h 2.460937 l 0.445313,1.6875000375 h 1.019531 L 32.805187,-6.9031953 h -1.40625 z m 1.722656,-2.6015625375 0.925781,-3.46875 h 0.09375 l 0.925782,3.46875 z m 0,0"
       style="fill:#1a1416;fill-opacity:1;fill-rule:nonzero;stroke:none"
       aria-label="58AA9A"
       transform="matrix(1.3333333,0,0,1.3333333,186.416,18.770667)" />
    <path
       id="path21"
       d="m 136.264,-56.89284 h 42.5202 v 21.26009 H 136.264 Z"
       style="fill:#66b8a7;fill-opacity:1;fill-rule:nonzero;stroke:none"
       transform="matrix(1.3333333,0,0,-1.3333333,-0.26533333,-19.164)" />
    <path
       id="path22"
       d="m 2.9516719,0.09364062 c 1.4882812,0 2.3671875,-0.8671875 2.3671875,-2.33203122 0,-1.359375 -0.6796875,-2.1445313 -1.8867188,-2.1445313 -0.8320312,0 -1.453125,0.4101563 -1.640625,1.1367188 h -0.09375 c 0.011719,-1.7695313 1.0195313,-2.6835938 3.0820313,-2.765625 l -0.09375,-0.9257813 c -2.7421875,0.140625 -4.06640628,1.5117188 -4.06640628,4.1484375 v 0.421875 c 0,1.68750002 0.73828128,2.46093752 2.33203128,2.46093752 z m 0.035156,-0.890625 c -0.8320312,0 -1.3242187,-0.50390622 -1.3242187,-1.34765622 0,-0.8554688 0.5039062,-1.3359375 1.40625,-1.3359375 0.796875,0 1.2304687,0.4453125 1.2304687,1.2421875 0,0.9023437 -0.4921875,1.44140622 -1.3125,1.44140622 z m 5.803711,0.890625 c 1.4882811,0 2.3671881,-0.8671875 2.3671881,-2.33203122 0,-1.359375 -0.679688,-2.1445313 -1.8867194,-2.1445313 -0.8320312,0 -1.453125,0.4101563 -1.640625,1.1367188 h -0.09375 c 0.011719,-1.7695313 1.0195313,-2.6835938 3.0820314,-2.765625 l -0.09375,-0.9257813 c -2.7421876,0.140625 -4.0664064,1.5117188 -4.0664064,4.1484375 v 0.421875 c 0,1.68750002 0.7382813,2.46093752 2.3320313,2.46093752 z m 0.035156,-0.890625 c -0.8320312,0 -1.3242187,-0.50390622 -1.3242187,-1.34765622 0,-0.8554688 0.5039062,-1.3359375 1.40625,-1.3359375 0.796875,0 1.2304688,0.4453125 1.2304688,1.2421875 0,0.9023437 -0.4921876,1.44140622 -1.3125001,1.44140622 z m 3.6210941,0.796875005 h 2.648438 c 1.335937,0 2.097656,-0.691406255 2.097656,-1.898437525 0,-1.078125 -0.773438,-1.7109375 -2.144531,-1.734375 v -0.058594 c 1.066406,-0.1054688 1.652343,-0.6210938 1.652343,-1.4648438 0,-1.1132812 -0.796875,-1.7460937 -2.191406,-1.7460937 h -2.0625 z M 13.46632,-0.92589063 V -3.1876094 h 1.277344 c 0.914063,0 1.417969,0.421875 1.417969,1.1484375 0,0.703125 -0.492188,1.11328127 -1.347656,1.11328127 z m 0,-3.18749997 v -1.8632813 h 0.984375 c 0.785157,0 1.230469,0.328125 1.230469,0.9140625 0,0.609375 -0.421875,0.9492188 -1.160156,0.9492188 z m 6.963867,4.20703122 c 1.5,0 2.355469,-0.7265625 2.355469,-1.99218752 0,-0.9257812 -0.550781,-1.5351562 -1.535156,-1.734375 v -0.082031 c 0.855469,-0.1992188 1.335937,-0.7382813 1.335937,-1.5351563 0,-1.1132812 -0.785156,-1.7578125 -2.15625,-1.7578125 -1.371093,0 -2.15625,0.6445313 -2.15625,1.7578125 0,0.8085938 0.480469,1.3476563 1.347657,1.5351563 v 0.082031 c -0.996094,0.1992188 -1.546875,0.8085938 -1.546875,1.734375 0,1.26562502 0.855468,1.99218752 2.355468,1.99218752 z m 0,-0.890625 c -0.855468,0 -1.335937,-0.42187502 -1.335937,-1.14843752 0,-0.7734375 0.480469,-1.2304687 1.335937,-1.2304687 0.855469,0 1.335938,0.4570312 1.335938,1.2304687 0,0.7265625 -0.480469,1.14843752 -1.335938,1.14843752 z m 0,-3.31640622 c -0.726562,0 -1.136718,-0.3515625 -1.136718,-0.9492188 0,-0.6679687 0.410156,-1.0429687 1.136718,-1.0429687 0.726563,0 1.136719,0.375 1.136719,1.0429687 0,0.5976563 -0.410156,0.9492188 -1.136719,0.9492188 z m 3.140625,4.113281225 h 1.019532 L 25.035656,-1.6876094 h 2.460938 l 0.445312,1.687500025 h 1.019531 L 26.96925,-6.9024531 H 25.563 Z m 1.722657,-2.601562525 0.925781,-3.46875 H 26.313 l 0.925781,3.46875 z m 6.011718,2.601562525 h 1.113282 L 34.797375,-6.9024531 h -5.074219 v 2.4140625 h 1.042969 v -1.4882813 h 2.601562 z m 0,0"
       style="fill:#1a1416;fill-opacity:1;fill-rule:nonzero;stroke:none"
       aria-label="66B8A7"
       transform="matrix(1.3333333,0,0,1.3333333,186.416,47.117333)" />
    <path
       id="path23"
       d="m 136.264,-78.15295 h 42.5202 v 21.26009 H 136.264 Z"
       style="fill:#80c9bc;fill-opacity:1;fill-rule:nonzero;stroke:none"
       transform="matrix(1.3333333,0,0,-1.3333333,-0.26533333,-19.164)" />
    <path
       id="path24"
       d="m 2.9165156,0.09438281 c 1.5,0 2.3554688,-0.7265625 2.3554688,-1.99218751 0,-0.9257812 -0.5507813,-1.5351562 -1.5351563,-1.734375 v -0.082031 c 0.8554688,-0.1992188 1.3359375,-0.7382813 1.3359375,-1.5351563 0,-1.1132812 -0.7851562,-1.7578125 -2.15625,-1.7578125 -1.3710937,0 -2.15624998,0.6445313 -2.15624998,1.7578125 0,0.8085938 0.48046878,1.3476563 1.34765628,1.5351563 v 0.082031 c -0.9960938,0.1992188 -1.54687503,0.8085938 -1.54687503,1.734375 0,1.26562501 0.85546873,1.99218751 2.35546873,1.99218751 z m 0,-0.890625 c -0.8554687,0 -1.3359375,-0.42187501 -1.3359375,-1.14843751 0,-0.7734375 0.4804688,-1.2304687 1.3359375,-1.2304687 0.8554688,0 1.3359375,0.4570312 1.3359375,1.2304687 0,0.7265625 -0.4804687,1.14843751 -1.3359375,1.14843751 z m 0,-3.31640621 c -0.7265625,0 -1.1367187,-0.3515625 -1.1367187,-0.9492188 0,-0.6679687 0.4101562,-1.0429687 1.1367187,-1.0429687 0.7265625,0 1.1367188,0.375 1.1367188,1.0429687 0,0.5976563 -0.4101563,0.9492188 -1.1367188,0.9492188 z m 5.8388672,4.20703121 c 1.5703122,0 2.3554692,-1.14843751 2.3554692,-3.50390621 0,-2.4023438 -0.785157,-3.5976563 -2.3554692,-3.5976563 -1.5703125,0 -2.3554687,1.1953125 -2.3554687,3.5976563 0,2.3554687 0.7851562,3.50390621 2.3554687,3.50390621 z m 0,-0.890625 c -0.8789062,0 -1.3125,-0.86718751 -1.3125,-2.61328121 0,-1.8046875 0.4335938,-2.6953125 1.3125,-2.6953125 0.8789063,0 1.3125002,0.890625 1.3125002,2.6953125 0,1.7460937 -0.4335939,2.61328121 -1.3125002,2.61328121 z m 0,-1.87500001 c 0.4335938,0 0.7265625,-0.2929687 0.7265625,-0.7382812 0,-0.4335938 -0.2929687,-0.7265625 -0.7265625,-0.7265625 -0.4335937,0 -0.7265625,0.2929687 -0.7265625,0.7265625 0,0.4453125 0.2929688,0.7382812 0.7265625,0.7382812 z m 6.5507812,2.76562501 c 0.621094,0 1.207031,-0.10546875 1.78125,-0.328125 L 16.864758,-1.0892109 c -0.457031,0.19921871 -0.914063,0.29296871 -1.382813,0.29296871 -1.558593,0 -2.34375,-0.90234371 -2.34375,-2.71875001 0,-1.6523437 0.808594,-2.5898437 2.0625,-2.5898437 0.527344,0 0.996094,0.2460937 1.289063,0.6914062 l 0.726562,-0.7148437 c -0.328125,-0.5625 -1.066406,-0.8789063 -2.027343,-0.8789063 -1.96875,0 -3.09375,1.3007813 -3.09375,3.5390625 0,2.3789063 1.078125,3.56250001 3.210937,3.56250001 z m 4.655273,-2.55468751 c 0.84375,0 1.453125,-0.4101562 1.640625,-1.125 h 0.09375 c 0,1.7578125 -1.019531,2.67187501 -3.082031,2.75390626 l 0.09375,0.92578125 c 2.742188,-0.12890625 4.066406,-1.50000001 4.066406,-4.13671871 v -0.4335938 c 0,-1.6875 -0.738281,-2.4609375 -2.332031,-2.4609375 -1.488281,0 -2.367187,0.8671875 -2.367187,2.3320313 0,1.3710937 0.679687,2.1445312 1.886718,2.1445312 z m 0.363282,-0.890625 c -0.785157,0 -1.230469,-0.4570312 -1.230469,-1.2539062 0,-0.9023438 0.492187,-1.4296875 1.3125,-1.4296875 0.832031,0 1.324219,0.4921875 1.324219,1.3359375 0,0.8554687 -0.503907,1.3476562 -1.40625,1.3476562 z m 3.796875,3.3515625125 h 2.648437 c 1.335938,0 2.097656,-0.6914062525 2.097656,-1.8984375125 0,-1.078125 -0.773437,-1.7109375 -2.144531,-1.734375 v -0.058594 c 1.066406,-0.1054688 1.652344,-0.6210938 1.652344,-1.4648438 0,-1.1132812 -0.796875,-1.7460937 -2.191406,-1.7460937 h -2.0625 z M 25.141125,-0.92514844 V -3.1868672 h 1.277344 c 0.914062,0 1.417968,0.421875 1.417968,1.1484375 0,0.703125 -0.492187,1.11328126 -1.347656,1.11328126 z m 0,-3.18749996 V -5.9759297 H 26.1255 c 0.785156,0 1.230469,0.328125 1.230469,0.9140625 0,0.609375 -0.421875,0.9492188 -1.160157,0.9492188 z m 7.675781,4.20703121 c 0.621094,0 1.207031,-0.10546875 1.78125,-0.328125 L 34.3755,-1.0892109 c -0.457031,0.19921871 -0.914063,0.29296871 -1.382813,0.29296871 -1.558593,0 -2.34375,-0.90234371 -2.34375,-2.71875001 0,-1.6523437 0.808594,-2.5898437 2.0625,-2.5898437 0.527344,0 0.996094,0.2460937 1.289063,0.6914062 l 0.726562,-0.7148437 c -0.328125,-0.5625 -1.066406,-0.8789063 -2.027343,-0.8789063 -1.96875,0 -3.09375,1.3007813 -3.09375,3.5390625 0,2.3789063 1.078125,3.56250001 3.210937,3.56250001 z m 0,0"
       style="fill:#1a1416;fill-opacity:1;fill-rule:nonzero;stroke:none"
       aria-label="80C9BC"
       transform="matrix(1.3333333,0,0,1.3333333,186.416,75.464)" />
    <path
       id="path25"
       d="m 181.61865,-35.63274 h 42.5202 v 21.26009 h -42.5202 z"
       style="fill:#2a8ad9;fill-opacity:1;fill-rule:nonzero;stroke:none"
       transform="matrix(1.3333333,0,0,-1.3333333,-0.26533333,-19.164)" />
    <path
       id="path26"
       d="M 0.73732031,-8.515625e-4 H 5.2373203 V -0.92663281 H 2.2607578 V -1.0672578 c 1.8046875,-1.1835938 2.6835938,-2.4609375 2.6835938,-3.8554688 0,-1.3945312 -0.7265625,-2.0859375 -2.1796875,-2.0859375 -0.9023438,0 -1.80468754,0.421875 -2.25000004,1.0664063 l 0.66796874,0.6679687 c 0.4101563,-0.5039062 1.03125,-0.8320312 1.5585938,-0.8320312 0.7851562,0 1.1835937,0.3867187 1.1835937,1.1835937 0,1.359375 -1.0546875,2.6367188 -3.18749999,3.8085938 z m 5.32324219,0 H 7.0800938 L 7.5254063,-1.6883516 h 2.4609375 l 0.4453122,1.6875000375 h 1.019532 L 9.459,-6.9031953 H 8.05275 Z M 7.7832188,-2.6024141 8.709,-6.0711641 h 0.09375 l 0.9257813,3.46875 z m 6.8085942,2.69531254 c 1.5,0 2.355468,-0.7265625 2.355468,-1.99218754 0,-0.9257812 -0.550781,-1.5351562 -1.535156,-1.734375 v -0.082031 c 0.855469,-0.1992188 1.335938,-0.7382813 1.335938,-1.5351563 0,-1.1132812 -0.785157,-1.7578125 -2.15625,-1.7578125 -1.371094,0 -2.15625,0.6445313 -2.15625,1.7578125 0,0.8085938 0.480468,1.3476563 1.347656,1.5351563 v 0.082031 c -0.996094,0.1992188 -1.546875,0.8085938 -1.546875,1.734375 0,1.26562504 0.855469,1.99218754 2.355469,1.99218754 z m 0,-0.890625 c -0.855469,0 -1.335938,-0.42187504 -1.335938,-1.14843754 0,-0.7734375 0.480469,-1.2304687 1.335938,-1.2304687 0.855468,0 1.335937,0.4570312 1.335937,1.2304687 0,0.7265625 -0.480469,1.14843754 -1.335937,1.14843754 z m 0,-3.31640624 c -0.726563,0 -1.136719,-0.3515625 -1.136719,-0.9492188 0,-0.6679687 0.410156,-1.0429687 1.136719,-1.0429687 0.726562,0 1.136718,0.375 1.136718,1.0429687 0,0.5976563 -0.410156,0.9492188 -1.136718,0.9492188 z m 3.143554,4.1132812375 h 1.019531 L 19.200211,-1.6883516 h 2.460937 l 0.445313,1.6875000375 h 1.019531 L 21.133805,-6.9031953 h -1.40625 z m 1.722656,-2.6015625375 0.925782,-3.46875 h 0.09375 l 0.925781,3.46875 z m 4.570313,2.6015625375 h 1.675781 c 2.109375,0 3.164063,-1.1132812375 3.164063,-3.3515625375 0,-2.3789062 -1.054688,-3.5507812 -3.164063,-3.5507812 H 24.028336 Z M 25.036148,-0.92663281 V -5.9774141 h 0.667969 c 1.417969,0 2.132813,0.8671875 2.132813,2.625 0,1.6171875 -0.714844,2.42578129 -2.132813,2.42578129 z m 6.597657,-1.53515629 c 0.84375,0 1.453125,-0.4101562 1.640625,-1.125 h 0.09375 c 0,1.7578125 -1.019532,2.67187504 -3.082032,2.75390629 l 0.09375,0.92578125 c 2.742188,-0.12890625 4.066407,-1.50000004 4.066407,-4.13671874 v -0.4335938 c 0,-1.6875 -0.738282,-2.4609375 -2.332032,-2.4609375 -1.488281,0 -2.367187,0.8671875 -2.367187,2.3320313 0,1.3710937 0.679687,2.1445312 1.886719,2.1445312 z m 0.363281,-0.890625 c -0.785156,0 -1.230469,-0.4570312 -1.230469,-1.2539062 0,-0.9023438 0.492188,-1.4296875 1.3125,-1.4296875 0.832031,0 1.324219,0.4921875 1.324219,1.3359375 0,0.8554687 -0.503906,1.3476562 -1.40625,1.3476562 z m 0,0"
       style="fill:#1a1416;fill-opacity:1;fill-rule:nonzero;stroke:none"
       aria-label="2A8AD9"
       transform="matrix(1.3333333,0,0,1.3333333,246.888,18.770667)" />
    <path
       id="path27"
       d="m 181.61865,-56.89284 h 42.5202 v 21.26009 h -42.5202 z"
       style="fill:#3c9be1;fill-opacity:1;fill-rule:nonzero;stroke:none"
       transform="matrix(1.3333333,0,0,-1.3333333,-0.26533333,-19.164)" />
    <path
       id="path28"
       d="m 2.4951328,0.09364062 c 1.640625,0 2.578125,-0.703125 2.578125,-1.94531252 0,-0.9960937 -0.6328125,-1.6289062 -1.5820312,-1.7929687 v -0.1054688 c 0.8554687,-0.2226562 1.4414062,-0.8789062 1.4414062,-1.7109375 0,-0.984375 -0.7148437,-1.546875 -1.9804687,-1.546875 -0.9609375,0 -1.7460938,0.2929688 -2.34375004,0.9726563 l 0.66796874,0.6679687 c 0.4921875,-0.4921875 1.078125,-0.7382812 1.5703125,-0.7382812 0.6796875,0 1.0664063,0.328125 1.0664063,0.890625 0,0.703125 -0.65625,1.21875 -2.1796875,1.4179687 l 0.1171875,0.6328125 h 0.1523437 c 1.3125,0 2.0507813,0.4453125 2.0507813,1.21875 0,0.7265625 -0.5859375,1.14843752 -1.59375,1.14843752 -0.7617188,0 -1.21875,-0.15234375 -1.60546879,-0.26953122 l -0.12890625,0.92578122 c 0.45703124,0.140625005 1.05468754,0.234375 1.76953124,0.234375 z m 6.975586,0 c 0.6210942,0 1.2070312,-0.10546875 1.7812502,-0.328125 L 11.029313,-1.0899531 c -0.457032,0.19921872 -0.914063,0.29296872 -1.382813,0.29296872 -1.5585937,0 -2.34375,-0.90234372 -2.34375,-2.71875002 0,-1.6523437 0.8085938,-2.5898437 2.0625,-2.5898437 0.5273438,0 0.996094,0.2460937 1.289063,0.6914062 l 0.726562,-0.7148437 c -0.328125,-0.5625 -1.066406,-0.8789063 -2.0273437,-0.8789063 -1.96875,0 -3.09375,1.3007813 -3.09375,3.5390625 0,2.3789063 1.078125,3.56250002 3.2109375,3.56250002 z M 14.123063,-2.4610469 c 0.84375,0 1.453125,-0.4101562 1.640625,-1.125 h 0.09375 c 0,1.7578125 -1.019532,2.67187502 -3.082032,2.75390627 l 0.09375,0.92578125 c 2.742188,-0.12890625 4.066407,-1.50000002 4.066407,-4.13671872 v -0.4335938 c 0,-1.6875 -0.738282,-2.4609375 -2.332032,-2.4609375 -1.488281,0 -2.367187,0.8671875 -2.367187,2.3320313 0,1.3710937 0.679687,2.1445312 1.886719,2.1445312 z m 0.363281,-0.890625 c -0.785156,0 -1.230469,-0.4570312 -1.230469,-1.2539062 0,-0.9023438 0.492188,-1.4296875 1.3125,-1.4296875 0.832031,0 1.324219,0.4921875 1.324219,1.3359375 0,0.8554687 -0.503906,1.3476562 -1.40625,1.3476562 z m 3.799804,3.351562525 h 2.648438 c 1.335937,0 2.097656,-0.691406255 2.097656,-1.898437525 0,-1.078125 -0.773437,-1.7109375 -2.144531,-1.734375 v -0.058594 c 1.066406,-0.1054688 1.652344,-0.6210938 1.652344,-1.4648438 0,-1.1132812 -0.796875,-1.7460937 -2.191407,-1.7460937 h -2.0625 z M 19.30568,-0.92589063 V -3.1876094 h 1.277343 c 0.914063,0 1.417969,0.421875 1.417969,1.1484375 0,0.703125 -0.492187,1.11328127 -1.347656,1.11328127 z m 0,-3.18749997 v -1.8632813 h 0.984375 c 0.785156,0 1.230468,0.328125 1.230468,0.9140625 0,0.609375 -0.421875,0.9492188 -1.160156,0.9492188 z m 4.816406,4.113281225 h 4.582031 V -0.92589063 h -3.5625 V -3.0001094 h 2.683594 v -0.9257812 h -2.683594 v -2.0507813 h 3.5625 v -0.9257812 h -4.582031 z m 5.894531,0 H 34.30568 V -0.92589063 H 32.758805 V -6.9024531 h -1.019532 l -1.628906,0.5742187 v 0.984375 l 1.628906,-0.5625 v 4.98046877 h -1.722656 z m 0,0"
       style="fill:#1a1416;fill-opacity:1;fill-rule:nonzero;stroke:none"
       aria-label="3C9BE1"
       transform="matrix(1.3333333,0,0,1.3333333,246.888,47.117333)" />
    <path
       id="path29"
       d="m 181.61865,-78.15295 h 42.5202 v 21.26009 h -42.5202 z"
       style="fill:#5fb2f0;fill-opacity:1;fill-rule:nonzero;stroke:none"
       transform="matrix(1.3333333,0,0,-1.3333333,-0.26533333,-19.164)" />
    <path
       id="path30"
       d="m 2.9873203,0.09438281 c 1.4765625,0 2.3320313,-0.84375 2.3320313,-2.32031251 0,-1.453125 -0.7617188,-2.2734375 -2.0976563,-2.2734375 -0.375,0 -0.7382812,0.035156 -1.1015625,0.1757813 l 0.046875,-1.6757813 h 2.71875 V -6.9017109 H 1.1591953 l -0.1054687,3.5976562 h 0.5507812 c 0.3984375,-0.2109375 0.8203125,-0.328125 1.2773438,-0.328125 0.9023437,0 1.4179687,0.515625 1.4179687,1.40625 0,0.9140625 -0.46875,1.42968751 -1.3007812,1.42968751 -0.84375,0 -1.3125,-0.42187501 -1.3125,-1.13671871 H 0.64357031 c 0,1.28906246 0.84374999,2.02734371 2.34374999,2.02734371 z M 6.7168125,6.328125e-4 H 7.724625 V -2.7063984 h 2.683594 V -3.6321797 H 7.724625 v -2.34375 h 3.5625 V -6.9017109 H 6.7168125 Z m 5.7304685,0 h 2.648438 c 1.335937,0 2.097656,-0.6914062525 2.097656,-1.8984375125 0,-1.078125 -0.773437,-1.7109375 -2.144531,-1.734375 v -0.058594 c 1.066406,-0.1054688 1.652344,-0.6210938 1.652344,-1.4648438 0,-1.1132812 -0.796875,-1.7460937 -2.191407,-1.7460937 h -2.0625 z M 13.466813,-0.92514844 V -3.1868672 h 1.277343 c 0.914063,0 1.417969,0.421875 1.417969,1.1484375 0,0.703125 -0.492187,1.11328126 -1.347656,1.11328126 z m 0,-3.18749996 v -1.8632813 h 0.984375 c 0.785156,0 1.230468,0.328125 1.230468,0.9140625 0,0.609375 -0.421875,0.9492188 -1.160156,0.9492188 z m 4.784179,4.1132812125 h 4.5 V -0.92514844 H 19.77443 V -1.0657734 c 1.804687,-1.1835938 2.683593,-2.4609375 2.683593,-3.8554688 0,-1.3945312 -0.726562,-2.0859375 -2.179687,-2.0859375 -0.902344,0 -1.804688,0.421875 -2.25,1.0664063 l 0.667969,0.6679687 c 0.410156,-0.5039062 1.03125,-0.8320312 1.558593,-0.8320312 0.785157,0 1.183594,0.3867187 1.183594,1.1835937 0,1.359375 -1.054687,2.6367188 -3.1875,3.8085938 z m 5.976563,0 h 1.007812 V -2.7063984 h 2.683594 v -0.9257813 h -2.683594 v -2.34375 h 3.5625 v -0.9257812 h -4.570312 z m 7.875,0.0937499975 c 1.570312,0 2.355468,-1.14843751 2.355468,-3.50390621 0,-2.4023438 -0.785156,-3.5976563 -2.355468,-3.5976563 -1.570313,0 -2.355469,1.1953125 -2.355469,3.5976563 0,2.3554687 0.785156,3.50390621 2.355469,3.50390621 z m 0,-0.890625 c -0.878907,0 -1.3125,-0.86718751 -1.3125,-2.61328121 0,-1.8046875 0.433593,-2.6953125 1.3125,-2.6953125 0.878906,0 1.3125,0.890625 1.3125,2.6953125 0,1.7460937 -0.433594,2.61328121 -1.3125,2.61328121 z m 0,-1.87500001 c 0.433593,0 0.726562,-0.2929687 0.726562,-0.7382812 0,-0.4335938 -0.292969,-0.7265625 -0.726562,-0.7265625 -0.433594,0 -0.726563,0.2929687 -0.726563,0.7265625 0,0.4453125 0.292969,0.7382812 0.726563,0.7382812 z m 0,0"
       style="fill:#1a1416;fill-opacity:1;fill-rule:nonzero;stroke:none"
       aria-label="5FB2F0"
       transform="matrix(1.3333333,0,0,1.3333333,246.888,75.464)" />
    <path
       id="path31"
       d="m 226.97372,-35.63274 h 42.5202 v 21.26009 h -42.5202 z"
       style="fill:#9d3bd6;fill-opacity:1;fill-rule:nonzero;stroke:none"
       transform="matrix(1.3333333,0,0,-1.3333333,-0.26533333,-19.164)" />
    <path
       id="path32"
       d="m 2.44875,-2.4617891 c 0.84375,0 1.453125,-0.4101562 1.640625,-1.125 h 0.09375 c 0,1.7578125 -1.0195312,2.67187504 -3.0820312,2.75390629 l 0.09375,0.92578125 C 3.9370313,-0.03600781 5.26125,-1.4071016 5.26125,-4.0438203 v -0.4335938 c 0,-1.6875 -0.7382812,-2.4609375 -2.3320312,-2.4609375 -1.4882813,0 -2.36718755,0.8671875 -2.36718755,2.3320313 0,1.3710937 0.67968755,2.1445312 1.88671875,2.1445312 z m 0.3632813,-0.890625 c -0.7851563,0 -1.2304688,-0.4570312 -1.2304688,-1.2539062 0,-0.9023438 0.4921875,-1.4296875 1.3125,-1.4296875 0.8320313,0 1.3242188,0.4921875 1.3242188,1.3359375 0,0.8554687 -0.5039063,1.3476562 -1.40625,1.3476562 z m 3.7060546,3.3515625375 h 1.6757813 c 2.1093748,0 3.1640628,-1.1132812375 3.1640628,-3.3515625375 0,-2.3789062 -1.054688,-3.5507812 -3.1640628,-3.5507812 H 6.5180859 Z M 7.5258984,-0.92663281 V -5.9774141 h 0.6679688 c 1.4179687,0 2.1328128,0.8671875 2.1328128,2.625 0,1.6171875 -0.7148441,2.42578129 -2.1328128,2.42578129 z M 14.17043,0.09289844 c 1.640625,0 2.578125,-0.703125 2.578125,-1.94531254 0,-0.9960937 -0.632813,-1.6289062 -1.582032,-1.7929687 v -0.1054688 c 0.855469,-0.2226562 1.441407,-0.8789062 1.441407,-1.7109375 0,-0.984375 -0.714844,-1.546875 -1.980469,-1.546875 -0.960938,0 -1.746094,0.2929688 -2.34375,0.9726563 l 0.667969,0.6679687 c 0.492187,-0.4921875 1.078125,-0.7382812 1.570312,-0.7382812 0.679688,0 1.066406,0.328125 1.066406,0.890625 0,0.703125 -0.65625,1.21875 -2.179687,1.4179687 l 0.117187,0.6328125 h 0.152344 c 1.3125,0 2.050781,0.4453125 2.050781,1.21875 0,0.7265625 -0.585937,1.14843754 -1.59375,1.14843754 -0.761718,0 -1.21875,-0.15234375 -1.605468,-0.26953124 l -0.128907,0.92578124 c 0.457032,0.1406249975 1.054688,0.234375 1.769532,0.234375 z m 4.113281,-0.0937500025 h 2.648437 c 1.335938,0 2.097657,-0.6914062475 2.097657,-1.8984375375 0,-1.078125 -0.773438,-1.7109375 -2.144532,-1.734375 v -0.058594 c 1.066407,-0.1054688 1.652344,-0.6210938 1.652344,-1.4648438 0,-1.1132812 -0.796875,-1.7460937 -2.191406,-1.7460937 h -2.0625 z M 19.303242,-0.92663281 V -3.1883516 h 1.277344 c 0.914062,0 1.417969,0.421875 1.417969,1.1484375 0,0.703125 -0.492188,1.11328129 -1.347657,1.11328129 z m 0,-3.18749999 v -1.8632813 h 0.984375 c 0.785156,0 1.230469,0.328125 1.230469,0.9140625 0,0.609375 -0.421875,0.9492188 -1.160156,0.9492188 z m 4.725586,4.1132812375 h 1.675781 c 2.109375,0 3.164063,-1.1132812375 3.164063,-3.3515625375 0,-2.3789062 -1.054688,-3.5507812 -3.164063,-3.5507812 H 24.028828 Z M 25.036641,-0.92663281 V -5.9774141 h 0.667968 c 1.417969,0 2.132813,0.8671875 2.132813,2.625 0,1.6171875 -0.714844,2.42578129 -2.132813,2.42578129 z m 7.101562,1.01953125 c 1.488281,0 2.367188,-0.8671875 2.367188,-2.33203124 0,-1.359375 -0.679688,-2.1445313 -1.886719,-2.1445313 -0.832031,0 -1.453125,0.4101563 -1.640625,1.1367188 h -0.09375 c 0.01172,-1.7695313 1.019531,-2.6835938 3.082031,-2.765625 l -0.09375,-0.9257813 c -2.742187,0.140625 -4.066406,1.5117188 -4.066406,4.1484375 v 0.421875 c 0,1.68750004 0.738281,2.46093754 2.332031,2.46093754 z m 0.03516,-0.890625 c -0.832031,0 -1.324218,-0.50390624 -1.324218,-1.34765624 0,-0.8554688 0.503906,-1.3359375 1.40625,-1.3359375 0.796875,0 1.230468,0.4453125 1.230468,1.2421875 0,0.9023437 -0.492187,1.44140624 -1.3125,1.44140624 z m 0,0"
       style="fill:#1a1416;fill-opacity:1;fill-rule:nonzero;stroke:none"
       aria-label="9D3BD6"
       transform="matrix(1.3333333,0,0,1.3333333,307.36,18.770667)" />
    <path
       id="path33"
       d="m 226.97372,-56.89284 h 42.5202 v 21.26009 h -42.5202 z"
       style="fill:#a948e0;fill-opacity:1;fill-rule:nonzero;stroke:none"
       transform="matrix(1.3333333,0,0,-1.3333333,-0.26533333,-19.164)" />
    <path
       id="path34"
       d="M 0.2221875,-1.09375e-4 H 1.2417188 L 1.6870313,-1.6876094 H 4.1479688 L 4.5932813,-1.09375e-4 H 5.6128125 L 3.620625,-6.9024531 H 2.214375 Z M 1.9448438,-2.6016719 2.870625,-6.0704219 h 0.09375 l 0.9257813,3.46875 z m 6.3427734,0.140625 c 0.84375,0 1.453125,-0.4101562 1.640625,-1.125 h 0.09375 c 0,1.7578125 -1.0195309,2.67187502 -3.0820309,2.75390627 l 0.09375,0.92578125 C 9.7758984,-0.03526563 11.100117,-1.4063594 11.100117,-4.0430781 v -0.4335938 c 0,-1.6875 -0.738281,-2.4609375 -2.3320311,-2.4609375 -1.4882812,0 -2.3671875,0.8671875 -2.3671875,2.3320313 0,1.3710937 0.6796875,2.1445312 1.8867188,2.1445312 z m 0.3632812,-0.890625 c -0.7851562,0 -1.2304687,-0.4570312 -1.2304687,-1.2539062 0,-0.9023438 0.4921875,-1.4296875 1.3125,-1.4296875 0.8320312,0 1.3242183,0.4921875 1.3242183,1.3359375 0,0.8554687 -0.5039058,1.3476562 -1.4062496,1.3476562 z m 3.3867186,1.8046875 h 3.421875 v 1.546875025 h 1.007813 V -1.5469844 h 0.65625 v -0.9023437 h -0.65625 v -4.453125 h -1.007813 v 4.453125 h -2.203125 l 0.796875,-4.0664063 h -1.042969 z m 8.390625,1.64062502 c 1.5,0 2.355469,-0.7265625 2.355469,-1.99218752 0,-0.9257812 -0.550781,-1.5351562 -1.535156,-1.734375 v -0.082031 c 0.855468,-0.1992188 1.335937,-0.7382813 1.335937,-1.5351563 0,-1.1132812 -0.785156,-1.7578125 -2.15625,-1.7578125 -1.371094,0 -2.15625,0.6445313 -2.15625,1.7578125 0,0.8085938 0.480469,1.3476563 1.347656,1.5351563 v 0.082031 c -0.996093,0.1992188 -1.546875,0.8085938 -1.546875,1.734375 0,1.26562502 0.855469,1.99218752 2.355469,1.99218752 z m 0,-0.890625 c -0.855469,0 -1.335937,-0.42187502 -1.335937,-1.14843752 0,-0.7734375 0.480468,-1.2304687 1.335937,-1.2304687 0.855469,0 1.335938,0.4570312 1.335938,1.2304687 0,0.7265625 -0.480469,1.14843752 -1.335938,1.14843752 z m 0,-3.31640622 c -0.726562,0 -1.136719,-0.3515625 -1.136719,-0.9492188 0,-0.6679687 0.410157,-1.0429687 1.136719,-1.0429687 0.726563,0 1.136719,0.375 1.136719,1.0429687 0,0.5976563 -0.410156,0.9492188 -1.136719,0.9492188 z m 3.694336,4.113281225 h 4.582031 V -0.92589063 h -3.5625 V -3.0001094 h 2.683594 v -0.9257812 h -2.683594 v -2.0507813 h 3.5625 v -0.9257812 h -4.582031 z m 7.980469,0.093749995 c 1.570312,0 2.355469,-1.14843752 2.355469,-3.50390622 0,-2.4023438 -0.785157,-3.5976563 -2.355469,-3.5976563 -1.570313,0 -2.355469,1.1953125 -2.355469,3.5976563 0,2.3554687 0.785156,3.50390622 2.355469,3.50390622 z m 0,-0.890625 c -0.878906,0 -1.3125,-0.86718752 -1.3125,-2.61328122 0,-1.8046875 0.433594,-2.6953125 1.3125,-2.6953125 0.878906,0 1.3125,0.890625 1.3125,2.6953125 0,1.7460937 -0.433594,2.61328122 -1.3125,2.61328122 z m 0,-1.87500002 c 0.433594,0 0.726562,-0.2929687 0.726562,-0.7382812 0,-0.4335938 -0.292968,-0.7265625 -0.726562,-0.7265625 -0.433594,0 -0.726563,0.2929687 -0.726563,0.7265625 0,0.4453125 0.292969,0.7382812 0.726563,0.7382812 z m 0,0"
       style="fill:#1a1416;fill-opacity:1;fill-rule:nonzero;stroke:none"
       aria-label="A948E0"
       transform="matrix(1.3333333,0,0,1.3333333,307.36,47.117333)" />
    <path
       id="path35"
       d="m 226.97372,-78.15295 h 42.5202 v 21.26009 h -42.5202 z"
       style="fill:#bb6ef1;fill-opacity:1;fill-rule:nonzero;stroke:none"
       transform="matrix(1.3333333,0,0,-1.3333333,-0.26533333,-19.164)" />
    <path
       id="path36"
       d="M 0.77296875,-3.984375e-4 H 3.4214063 c 1.3359375,0 2.0976562,-0.6914062525 2.0976562,-1.8984374625 0,-1.078125 -0.7734375,-1.7109375 -2.1445312,-1.734375 v -0.058594 C 4.4409375,-3.7972734 5.026875,-4.3128984 5.026875,-5.1566484 5.026875,-6.2699297 4.23,-6.9027422 2.8354688,-6.9027422 H 0.77296875 Z M 1.7925,-0.92617969 V -3.1878984 h 1.2773438 c 0.9140625,0 1.4179687,0.421875 1.4179687,1.1484375 0,0.703125 -0.4921875,1.11328121 -1.3476562,1.11328121 z m 0,-3.18750001 v -1.8632812 h 0.984375 c 0.7851563,0 1.2304688,0.328125 1.2304688,0.9140625 0,0.609375 -0.421875,0.9492187 -1.1601563,0.9492187 z m 4.8193359,4.1132812625 h 2.6484375 c 1.3359376,0 2.0976566,-0.6914062525 2.0976566,-1.8984374625 0,-1.078125 -0.773438,-1.7109375 -2.1445316,-1.734375 v -0.058594 c 1.0664066,-0.1054687 1.6523436,-0.6210937 1.6523436,-1.4648437 0,-1.1132813 -0.796875,-1.7460938 -2.1914061,-1.7460938 h -2.0625 z M 7.6313672,-0.92617969 V -3.1878984 h 1.2773437 c 0.9140625,0 1.4179691,0.421875 1.4179691,1.1484375 0,0.703125 -0.4921878,1.11328121 -1.3476566,1.11328121 z m 0,-3.18750001 v -1.8632812 h 0.984375 c 0.7851562,0 1.2304687,0.328125 1.2304687,0.9140625 0,0.609375 -0.421875,0.9492187 -1.1601562,0.9492187 z m 6.9960938,4.20703126 c 1.488281,0 2.367187,-0.8671875 2.367187,-2.33203126 0,-1.359375 -0.679687,-2.1445312 -1.886718,-2.1445312 -0.832032,0 -1.453125,0.4101562 -1.640625,1.1367187 h -0.09375 c 0.01172,-1.7695312 1.019531,-2.6835937 3.082031,-2.765625 l -0.09375,-0.9257812 c -2.742188,0.140625 -4.066406,1.5117187 -4.066406,4.1484375 v 0.421875 c 0,1.68749996 0.738281,2.46093746 2.332031,2.46093746 z m 0.03516,-0.890625 c -0.832031,0 -1.324219,-0.50390626 -1.324219,-1.34765626 0,-0.8554687 0.503907,-1.3359375 1.40625,-1.3359375 0.796875,0 1.230469,0.4453125 1.230469,1.2421875 0,0.9023438 -0.492187,1.44140626 -1.3125,1.44140626 z m 3.621094,0.7968750025 h 4.582031 V -0.92617969 h -3.5625 V -3.0003984 h 2.683594 v -0.9257813 h -2.683594 v -2.0507812 h 3.5625 v -0.9257813 h -4.582031 z m 5.944336,0 h 1.007812 V -2.7074297 h 2.683594 v -0.9257812 h -2.683594 v -2.34375 h 3.5625 v -0.9257813 h -4.570312 z m 5.789062,0 h 4.289063 V -0.92617969 H 32.759297 V -6.9027422 h -1.019531 l -1.628907,0.5742188 v 0.984375 l 1.628907,-0.5625 v 4.98046871 h -1.722657 z m 0,0"
       style="fill:#1a1416;fill-opacity:1;fill-rule:nonzero;stroke:none"
       aria-label="BB6EF1"
       transform="matrix(1.3333333,0,0,1.3333333,307.36,75.356)" />
  </g>
</svg>
