<?xml version="1.0" encoding="UTF-8" standalone="no"?>
<!-- Created with Inkscape (http://www.inkscape.org/) -->

<svg
   version="1.1"
   id="svg1"
   width="313.70001"
   height="85.038666"
   viewBox="0 0 313.70001 85.038666"
   sodipodi:docname="logo.pdf"
   inkscape:export-filename="logo.svg"
   inkscape:export-xdpi="96"
   inkscape:export-ydpi="96"
   xmlns:inkscape="http://www.inkscape.org/namespaces/inkscape"
   xmlns:sodipodi="http://sodipodi.sourceforge.net/DTD/sodipodi-0.dtd"
   xmlns="http://www.w3.org/2000/svg"
   xmlns:svg="http://www.w3.org/2000/svg">
  <defs
     id="defs1" />
  <sodipodi:namedview
     id="namedview1"
     pagecolor="#ffffff"
     bordercolor="#000000"
     borderopacity="0.25"
     inkscape:showpageshadow="2"
     inkscape:pageopacity="0.0"
     inkscape:pagecheckerboard="0"
     inkscape:deskcolor="#d1d1d1">
    <inkscape:page
       x="0"
       y="0"
       inkscape:label="1"
       id="page1"
       width="313.70001"
       height="85.038666"
       margin="0"
       bleed="0" />
  </sodipodi:namedview>
  <g
     id="g1"
     inkscape:groupmode="layer"
     inkscape:label="1">
    <path
       id="path2"
       d="m -82.20558,-28.3468 v 56.69362 h 56.69363 V -28.3468 Z"
       style="fill:#a11e35;fill-opacity:1;fill-rule:nonzero;stroke:#dbdfe9;stroke-width:1.41731;stroke-linecap:butt;stroke-linejoin:miter;stroke-miterlimit:10;stroke-dasharray:none;stroke-opacity:1"
       transform="matrix(1.3333333,0,0,-1.3333333,114.33067,42.518667)" />
    <path
       id="path3"
       d="m 16.254625,-15.563672 v -1.066406 H 11.33275 v 1.066406 l 1.359375,0.117188 c 0.117187,0.01172 0.210937,0.07031 0.28125,0.1875 0.08203,0.105468 0.09375,0.210937 0.05859,0.316406 L 8.848375,-2.7433594 4.489,-15.001172 c -0.023437,-0.07031 -0.011719,-0.152344 0.035156,-0.269531 0.035156,-0.105469 0.09375,-0.164063 0.1875,-0.175781 L 6.1765,-15.563672 v -1.066406 H 0.2468125 v 1.066406 l 1.4648437,0.246094 5.671875,15.71484362 H 9.27025 L 14.824937,-15.294141 Z m 0,0"
       style="fill:#dbdfe9;fill-opacity:1;fill-rule:nonzero;stroke:none"
       aria-label="V"
       transform="matrix(1.3333333,0,0,1.3333333,31.514667,53.4)" />
    <path
       style="font-size:8.9664px;font-family:'PT Sans';fill:#dbdfe9"
       d="m 2.3940288,-1.9636416 0.2151936,0.9504384 h 0.00897 L 2.8513152,-1.9815744 4.3666369,-6.2764801 H 5.1108481 L 2.734752,0.0986304 H 2.4029952 l -2.420928,-6.3751105 h 0.81594241 z m 2.8692551,-2.1878017 q 0.3407232,-0.2062272 0.7890432,-0.3048576 0.4572864,-0.09863 0.9504384,-0.09863 0.4662528,0 0.7442112,0.1255296 0.2869249,0.1255296 0.4303873,0.3317568 0.1524288,0.1972608 0.1972608,0.4393536 0.053798,0.2420928 0.053798,0.4841856 0,0.5379841 -0.026899,1.0490689 -0.026899,0.5110848 -0.026899,0.9683712 0,0.33175679 0.026899,0.62764799 0.026899,0.29589121 0.09863,0.54695041 H 7.9711368 L 7.7828424,-0.60971521 h -0.044832 q -0.080698,0.1255296 -0.2062272,0.2510592 -0.1165632,0.11656321 -0.2869248,0.21519361 -0.1703616,0.089664 -0.3945216,0.1524288 -0.22416,0.0627648 -0.5110848,0.0627648 -0.2869248,0 -0.537984,-0.089664 -0.2420928,-0.089664 -0.4214208,-0.2510592 -0.179328,-0.17036161 -0.2869248,-0.40348801 -0.09863,-0.2331264 -0.09863,-0.52901759 0,-0.3945216 0.1613952,-0.6545472 0.1613952,-0.268992 0.44832,-0.4214208 0.2958912,-0.1613952 0.6993792,-0.22416 0.4124544,-0.071731 0.9056064,-0.071731 0.1255296,0 0.2420928,0 0.1255296,0 0.2510592,0.017933 0.026899,-0.268992 0.026899,-0.4841856 0,-0.4931521 -0.1972608,-0.6904129 -0.1972608,-0.1972608 -0.717312,-0.1972608 -0.1524288,0 -0.3317568,0.026899 -0.1703616,0.017933 -0.358656,0.062765 -0.179328,0.035866 -0.3496896,0.09863 -0.1613952,0.053798 -0.2869248,0.1255296 z m 1.2732288,3.59552649 q 0.2510592,0 0.44832,-0.0627648 0.1972608,-0.0717312 0.3407232,-0.1703616 0.1434624,-0.1075968 0.2331264,-0.23312639 0.09863,-0.1255296 0.1434624,-0.2420928 v -0.7442112 q -0.1255296,-0.00897 -0.2600256,-0.00897 -0.1255296,-0.00897 -0.2510592,-0.00897 -0.2779584,0 -0.5469504,0.035866 -0.2600256,0.026899 -0.4662528,0.1165632 -0.1972608,0.080698 -0.3227904,0.2331264 -0.1165632,0.1434624 -0.1165632,0.3676224 0,0.31382398 0.22416,0.52005119 0.22416,0.1972608 0.5738496,0.1972608 z M 12.660566,0 v -2.555424 q 0,-0.6993793 -0.206227,-1.0490689 -0.197261,-0.358656 -0.735245,-0.358656 -0.475219,0 -0.789043,0.2600256 -0.304858,0.2510592 -0.430387,0.6366144 V 0 H 9.7823518 V -4.4832001 H 10.28447 l 0.134496,0.5469504 h 0.03587 q 0.215193,-0.2869248 0.573849,-0.4662528 0.367623,-0.1882944 0.869741,-0.1882944 0.367623,0 0.645581,0.089664 0.277958,0.080698 0.457286,0.2958912 0.188295,0.2151936 0.277959,0.582816 0.09863,0.358656 0.09863,0.9145729 V 0 Z m 1.954683,-4.1514433 q 0.340724,-0.2062272 0.789044,-0.3048576 0.457286,-0.09863 0.950438,-0.09863 0.466253,0 0.744211,0.1255296 0.286925,0.1255296 0.430387,0.3317568 0.152429,0.1972608 0.197261,0.4393536 0.0538,0.2420928 0.0538,0.4841856 0,0.5379841 -0.0269,1.0490689 -0.0269,0.5110848 -0.0269,0.9683712 0,0.33175679 0.0269,0.62764799 0.0269,0.29589121 0.09863,0.54695041 h -0.529018 l -0.188294,-0.62764801 h -0.04483 q -0.0807,0.1255296 -0.206227,0.2510592 -0.116564,0.11656321 -0.286925,0.21519361 -0.170362,0.089664 -0.394522,0.1524288 -0.22416,0.0627648 -0.511085,0.0627648 -0.286924,0 -0.537984,-0.089664 -0.242092,-0.089664 -0.42142,-0.2510592 -0.179328,-0.17036161 -0.286925,-0.40348801 -0.09863,-0.2331264 -0.09863,-0.52901759 0,-0.3945216 0.161396,-0.6545472 0.161395,-0.268992 0.44832,-0.4214208 0.295891,-0.1613952 0.699379,-0.22416 0.412454,-0.071731 0.905606,-0.071731 0.12553,0 0.242093,0 0.12553,0 0.251059,0.017933 0.0269,-0.268992 0.0269,-0.4841856 0,-0.4931521 -0.19726,-0.6904129 -0.197261,-0.1972608 -0.717312,-0.1972608 -0.152429,0 -0.331757,0.026899 -0.170362,0.017933 -0.358656,0.062765 -0.179328,0.035866 -0.34969,0.09863 -0.161395,0.053798 -0.286925,0.1255296 z m 1.273229,3.59552649 q 0.251059,0 0.44832,-0.0627648 0.197261,-0.0717312 0.340723,-0.1703616 0.143463,-0.1075968 0.233127,-0.23312639 0.09863,-0.1255296 0.143462,-0.2420928 v -0.7442112 q -0.125529,-0.00897 -0.260025,-0.00897 -0.12553,-0.00897 -0.25106,-0.00897 -0.277958,0 -0.54695,0.035866 -0.260026,0.026899 -0.466253,0.1165632 -0.197261,0.080698 -0.32279,0.2331264 -0.116563,0.1434624 -0.116563,0.3676224 0,0.31382398 0.22416,0.52005119 0.22416,0.1972608 0.573849,0.1972608 z m 6.688937,-0.98630399 q 0,0.4572864 0.009,0.83387519 0.009,0.3676224 0.0807,0.72627841 H 22.182894 L 22.003566,-0.61868161 H 21.9677 q -0.179328,0.31382401 -0.520051,0.52005121 -0.340723,0.2062272 -0.79801,0.2062272 -0.89664,0 -1.335993,-0.56488321 -0.430388,-0.56488319 -0.430388,-1.76638079 0,-1.1476993 0.537984,-1.7394817 0.546951,-0.6007488 1.497389,-0.6007488 0.331757,0 0.520052,0.035866 0.19726,0.035866 0.42142,0.1165632 v -1.8650112 h 0.717312 z m -1.811212,1.02216959 q 0.457286,0 0.726278,-0.2331264 0.268992,-0.24209281 0.367622,-0.72627839 v -2.2236673 q -0.161395,-0.1255296 -0.367622,-0.179328 -0.206227,-0.053798 -0.54695,-0.053798 -0.618682,0 -0.968372,0.4124544 -0.349689,0.403488 -0.349689,1.3001281 0,0.3676224 0.0538,0.6814464 0.06277,0.313824 0.197261,0.537984 0.134496,0.22415999 0.34969,0.35865599 0.22416,0.1255296 0.537984,0.1255296 z m 3.344469,-3.96314889 h 0.717312 V 0 h -0.717312 z m -0.152429,-1.3628928 q 0,-0.2062272 0.134496,-0.3496896 0.143462,-0.1524288 0.358656,-0.1524288 0.215193,0 0.367622,0.1524288 0.152429,0.1434624 0.152429,0.3496896 0,0.2062272 -0.152429,0.3407232 -0.152429,0.134496 -0.367622,0.134496 -0.215194,0 -0.358656,-0.134496 -0.134496,-0.134496 -0.134496,-0.3407232 z m 3.048573,1.3628928 v 2.5554241 q 0,0.3496896 0.03587,0.6186816 0.04483,0.2600256 0.143463,0.43935359 0.09863,0.1703616 0.268992,0.2600256 0.170361,0.089664 0.430387,0.089664 0.242093,0 0.430387,-0.0717312 0.188295,-0.0806976 0.331757,-0.2151936 0.152429,-0.13449601 0.260026,-0.30485759 0.116563,-0.179328 0.188294,-0.3765888 v -2.9947777 h 0.717312 v 3.2099713 q 0,0.32279038 0.01793,0.67247999 Q 29.858131,-0.2600256 29.911929,0 h -0.493152 l -0.179328,-0.70834561 h -0.04483 q -0.206227,0.3496896 -0.555916,0.58281601 -0.34969,0.2331264 -0.887674,0.2331264 -0.358656,0 -0.636614,-0.089664 -0.268992,-0.0806976 -0.457287,-0.2958912 -0.179328,-0.21519361 -0.277958,-0.57384961 -0.08966,-0.36762239 -0.08966,-0.92353919 V -4.4832001 Z M 33.821276,0 v -2.5374912 q 0,-0.358656 -0.03587,-0.6186817 -0.0269,-0.268992 -0.116563,-0.44832 -0.08966,-0.179328 -0.260025,-0.268992 -0.161396,-0.089664 -0.430388,-0.089664 -0.412454,0 -0.690412,0.2510592 -0.268992,0.2510592 -0.376589,0.627648 V 0 h -0.717312 v -4.4832001 h 0.502118 l 0.134496,0.5469504 h 0.03587 q 0.242093,-0.2869248 0.555917,-0.4662528 0.32279,-0.1882944 0.833875,-0.1882944 0.430387,0 0.699379,0.1703616 0.277958,0.1613952 0.430387,0.5738496 0.206227,-0.3496896 0.564883,-0.5469504 0.367623,-0.1972608 0.824909,-0.1972608 0.376589,0 0.636615,0.089664 0.260025,0.080698 0.430387,0.2958912 0.170361,0.2151936 0.242093,0.582816 0.0807,0.3676224 0.0807,0.9325057 V 0 h -0.717312 v -2.6988864 q 0,-0.3227904 -0.03587,-0.5559169 -0.0269,-0.2420928 -0.12553,-0.3945216 -0.08966,-0.1613952 -0.260026,-0.2331264 -0.161395,-0.080698 -0.430387,-0.080698 -0.44832,0 -0.699379,0.2510592 -0.251059,0.2510592 -0.358656,0.7173121 V 0 Z"
       id="text3"
       inkscape:label="text3"
       transform="matrix(1.3333333,0,0,1.3333333,17.330667,75.477333)"
       aria-label="Vanadium" />
    <path
       style="font-weight:700;font-size:8.9664px;font-family:'PT Sans';fill:#dbdfe9"
       d="m 4.2590401,-4.7432257 q 0,0.4572864 -0.1703616,0.9235392 -0.1613952,0.4662528 -0.4214208,0.9145729 -0.2510592,0.44832 -0.5648832,0.8697408 -0.3048577,0.4124544 -0.6007489,0.762144 l -0.4752192,0.36762239 v 0.044832 L 2.6719872,-0.98630402 H 4.3935361 V 0 H 0.61868161 v -0.60074881 q 0.2151936,-0.22416 0.48418559,-0.52005119 0.268992,-0.3048576 0.537984,-0.6366144 0.2779584,-0.3407232 0.537984,-0.6993792 0.2600256,-0.358656 0.4662528,-0.7173121 0.2062272,-0.3676224 0.3227904,-0.7083456 0.1255297,-0.3407232 0.1255297,-0.6455808 0,-0.3676224 -0.2151937,-0.6007488 -0.2062272,-0.2420928 -0.6635136,-0.2420928 -0.2869248,0 -0.5917824,0.1255296 Q 1.3270272,-5.1287809 1.1208,-4.9404865 L 0.65454721,-5.7653953 q 0.34968959,-0.2869248 0.78904319,-0.4572864 0.44832,-0.179328 1.0490688,-0.179328 0.3855552,0 0.7083457,0.1075968 0.3227904,0.1075968 0.5559168,0.313824 0.2331264,0.2062272 0.3676224,0.5200512 0.134496,0.3048576 0.134496,0.717312 z m 2.9858062,3.88245129 q 0.5559168,0 0.8428416,-0.29589119 0.2958912,-0.2958912 0.2958912,-0.717312 0,-0.5110848 -0.3048576,-0.7531776 Q 7.7738639,-2.869248 7.1193167,-2.869248 H 6.4737359 v -0.6186817 l 1.0849344,-1.479456 0.5110848,-0.403488 -0.7083456,0.080698 H 5.8550543 v -0.986304 h 3.4251648 v 0.6366144 l -1.2642624,1.6946496 -0.3945216,0.2420928 v 0.044832 l 0.3765888,-0.053798 q 0.313824,0.026899 0.5917824,0.1434624 0.2869248,0.1165632 0.493152,0.3407232 0.2151936,0.2151937 0.3407232,0.5379841 0.1255296,0.3227904 0.1255296,0.7442112 0,0.5290176 -0.179328,0.9145728 Q 9.1995215,-0.64558081 8.8856975,-0.38555521 8.5808399,-0.1255296 8.1683855,0 7.7559311,0.1255296 7.2807119,0.1255296 q -0.3945216,0 -0.8159424,-0.0717312 Q 6.0433487,-0.0179328 5.7833231,-0.1524288 L 6.0971471,-1.1208 q 0.2331264,0.1165632 0.5110848,0.18829438 0.2869248,0.0717312 0.6366144,0.0717312 z"
       id="text4"
       transform="matrix(1.3333333,0,0,1.3333333,9.4173333,17.976)"
       aria-label="23" />
    <path
       style="font-size:8.9664px;font-family:'PT Sans';fill:#dbdfe9"
       d="m 1.9098432,-0.52005121 q 0.6186816,0 1.0221696,-0.358656 0.4034881,-0.35865599 0.4034881,-1.04010239 0,-0.6545472 -0.4034881,-0.9773376 Q 2.5374912,-3.2189377 1.838112,-3.2189377 l -0.7531776,0.044832 v -3.1023744 h 2.7975169 v 0.6635136 H 1.7574144 v 1.7843136 l 0.3855552,-0.017933 q 0.8876736,0.00897 1.3987585,0.493152 0.5110848,0.4841857 0.5110848,1.3897921 0,0.5021184 -0.1703616,0.89664 -0.1703616,0.38555519 -0.4662528,0.64558079 -0.2869248,0.26002561 -0.6814465,0.39452161 -0.3945216,0.134496 -0.8428416,0.134496 -0.403488,0 -0.6814464,-0.044832 -0.27795838,-0.044832 -0.52005119,-0.134496 l 0.1882944,-0.60971521 q 0.20622719,0.0806976 0.43935359,0.1255296 0.2420928,0.0358656 0.5917824,0.0358656 z M 5.2722439,-3.1382401 q 0,-1.613952 0.5200512,-2.4298944 0.5290176,-0.8159424 1.5332544,-0.8159424 1.0849345,0 1.5691201,0.806976 0.493152,0.7980096 0.493152,2.4388608 0,1.6139521 -0.5290176,2.42989449 -0.5200512,0.81594241 -1.5332545,0.81594241 -1.0670016,0 -1.5601536,-0.85180801 -0.493152,-0.85180799 -0.493152,-2.39402889 z m 0.7442112,0 q 0,0.5828161 0.071731,1.0670017 0.080698,0.4752192 0.2420928,0.8249088 0.1613952,0.34072319 0.403488,0.53798399 0.2510592,0.1882944 0.5917824,0.1882944 0.6814465,0 0.9952705,-0.62764799 0.3227904,-0.6366144 0.3227904,-1.9905409 0,-0.5738496 -0.071731,-1.0580352 -0.062765,-0.4841856 -0.22416,-0.8338752 -0.1524288,-0.3496896 -0.403488,-0.537984 -0.2510592,-0.1882944 -0.6186817,-0.1882944 -0.67248,0 -0.9952704,0.6366144 -0.313824,0.6366144 -0.313824,1.9815744 z m 4.1962759,2.72578569 q 0,-0.2420928 0.134496,-0.3765888 0.143462,-0.14346241 0.376589,-0.14346241 0.242093,0 0.385555,0.14346241 0.143462,0.134496 0.143462,0.3765888 0,0.23312641 -0.143462,0.37658881 -0.143462,0.1434624 -0.385555,0.1434624 -0.233127,0 -0.376589,-0.1434624 -0.134496,-0.1434624 -0.134496,-0.37658881 z m 1.945715,-3.96314889 q 0,-0.4303872 0.125529,-0.7980096 0.12553,-0.3676224 0.367623,-0.6366144 0.242093,-0.268992 0.600749,-0.4214208 0.367622,-0.1524288 0.851808,-0.1524288 0.914572,0 1.425657,0.5917824 0.511085,0.5917824 0.511085,1.6677504 0,1.0132032 -0.233126,1.7753473 -0.22416,0.7531776 -0.627648,1.2732288 -0.403488,0.52005119 -0.959405,0.8159424 -0.546951,0.2869248 -1.192531,0.3676224 l -0.161396,-0.57384961 q 0.520052,-0.0806976 0.932506,-0.3048576 0.421421,-0.22416001 0.717312,-0.56488319 0.304858,-0.3407232 0.493152,-0.7711104 0.188294,-0.4393536 0.260026,-0.9504384 -0.242093,0.2869248 -0.537984,0.403488 -0.286925,0.1075968 -0.762144,0.1075968 -0.367623,0 -0.69938,-0.1165632 -0.32279,-0.1255296 -0.573849,-0.358656 -0.251059,-0.2331265 -0.394522,-0.5738497 -0.143462,-0.3407232 -0.143462,-0.7800768 z m 0.744211,-0.071731 q 0,0.6366144 0.331757,0.9594048 0.340723,0.313824 0.887673,0.313824 0.439354,0 0.753178,-0.1434624 0.313824,-0.1434624 0.44832,-0.3765888 0.01793,-0.1165632 0.01793,-0.2062272 0,-0.089664 0,-0.1882944 0,-0.3227904 -0.0807,-0.6186816 -0.07173,-0.3048576 -0.22416,-0.537984 -0.152429,-0.2420928 -0.403488,-0.3765888 -0.242093,-0.134496 -0.573849,-0.134496 -0.546951,0 -0.851808,0.3496896 -0.304858,0.3407232 -0.304858,0.9594048 z m 8.374619,2.5195585 H 20.219241 V 0 h -0.69938 V -1.927776 H 16.75821 v -0.2958912 l 2.976845,-4.1514433 h 0.484186 v 3.8196865 h 1.058035 z m -1.757415,-2.5823233 0.08966,-0.7352448 h -0.0269 l -0.313824,0.6097152 -1.264262,1.7125825 -0.430387,0.4393536 0.627648,-0.071731 h 1.31806 z m 5.944724,-0.3407232 q 0,0.4752192 -0.179328,0.9773376 -0.170362,0.493152 -0.457286,0.9952705 -0.277959,0.5021184 -0.627649,0.986304 -0.349689,0.4752192 -0.699379,0.90560638 l -0.439353,0.38555521 v 0.0358656 l 0.573849,-0.0986304 h 1.954676 V 0 h -3.568628 v -0.2600256 q 0.197261,-0.20622721 0.475219,-0.51108481 0.277959,-0.30485759 0.57385,-0.67247999 0.304858,-0.3765888 0.591782,-0.7890432 0.295892,-0.4214208 0.529018,-0.8518081 0.242093,-0.4303872 0.385555,-0.851808 0.143463,-0.4214208 0.143463,-0.7980096 0,-0.4393536 -0.25106,-0.7262784 -0.251059,-0.2958912 -0.762144,-0.2958912 -0.340723,0 -0.663513,0.1434624 -0.322791,0.134496 -0.555917,0.313824 l -0.295891,-0.5110848 q 0.313824,-0.268992 0.744211,-0.4214208 0.430387,-0.1524288 0.923539,-0.1524288 0.385555,0 0.681447,0.1165632 0.295891,0.1075968 0.502118,0.313824 0.206227,0.2062272 0.313824,0.493152 0.107597,0.2779584 0.107597,0.6097152 z"
       id="text5"
       transform="matrix(1.3333333,0,0,1.3333333,40.485333,17.970667)"
       aria-label="50.942" />
    <path
       id="path5"
       d="M 18.42525,0 C 18.42525,10.1761 10.1761,18.42525 0,18.42525 -10.1761,18.42525 -18.42525,10.1761 -18.42525,0 c 0,-10.1761 8.24915,-18.42525 18.42525,-18.42525 10.1761,0 18.42525,8.24915 18.42525,18.42525 z"
       style="fill:#812fb4;fill-opacity:1;fill-rule:nonzero;stroke:#dbdfe9;stroke-width:1.41731;stroke-linecap:butt;stroke-linejoin:miter;stroke-miterlimit:10;stroke-dasharray:none;stroke-opacity:1"
       transform="matrix(1.3333333,0,0,-1.3333333,114.33067,42.518667)" />
    <path
       id="path6"
       d="m 11.308445,-1.2293594 v -1.5117187 c -0.5625,0.375 -1.183593,0.7148437 -1.8398434,1.0429687 -0.6796875,0.3164063 -1.3710938,0.4921875 -2.0859375,0.4921875 -0.796875,0 -1.4648438,-0.1640625 -1.9921875,-0.46875 -0.5390625,-0.2929687 -0.9609375,-0.703125 -1.2773438,-1.21875 -0.3164062,-0.5039062 -0.5273437,-1.078125 -0.6796875,-1.6992187 -0.1171875,-0.6210938 -0.1875,-1.2539063 -0.1875,-1.8867188 h 8.0273437 c 0.02344,-0.1054687 0.03516,-0.2226562 0.03516,-0.375 v -0.3046875 c 0,-1.4765625 -0.386718,-2.6953125 -1.171875,-3.6562501 -0.7734372,-0.949219 -1.9335934,-1.429687 -3.4687497,-1.429687 -1.125,0 -2.1210937,0.269531 -3,0.796875 -0.8789062,0.515625 -1.5703125,1.265625 -2.0742187,2.2265621 -0.4921875,0.9609375 -0.75000004,2.0859375 -0.75000004,3.375 0,1.3828125 0.26953124,2.53125 0.80859374,3.4335938 0.5507813,0.9140625 1.2539063,1.59374997 2.1210938,2.05078122 0.890625,0.43359375 1.8164062,0.66796875 2.8242187,0.66796875 0.8320313,0 1.6523438,-0.15234375 2.4492188,-0.4453125 0.8203125,-0.3046875 1.5703124,-0.66796875 2.2617184,-1.08984377 z M 8.8240703,-7.5926406 H 3.3748516 c 0.058594,-1.0546875 0.3867187,-1.8984375 0.9609375,-2.5078124 0.5625,-0.621094 1.265625,-0.925781 2.0742187,-0.925781 0.8320313,0 1.4296875,0.28125 1.8164063,0.832031 0.3984375,0.5624999 0.5976562,1.2539061 0.5976562,2.0624999 z m 0,0"
       style="fill:#dbdfe9;fill-opacity:1;fill-rule:nonzero;stroke:none"
       aria-label="e"
       transform="matrix(1.3333333,0,0,1.3333333,106.23067,50.381333)" />
    <path
       id="path7"
       d="M 6.8306484,-5.0390469 V -6.8906094 H 1.0884609 v 1.8515625 z m 0,0"
       style="fill:#dbdfe9;fill-opacity:1;fill-rule:nonzero;stroke:none"
       aria-label="-"
       transform="matrix(1.3333333,0,0,1.3333333,117.412,38.554667)" />
    <path
       id="path8"
       d="M 25.51196,-28.3468 V 28.34682 H 82.2056 V -28.3468 Z"
       style="fill:#22863a;fill-opacity:1;fill-rule:nonzero;stroke:#dbdfe9;stroke-width:1.41731;stroke-linecap:butt;stroke-linejoin:miter;stroke-miterlimit:10;stroke-dasharray:none;stroke-opacity:1"
       transform="matrix(1.3333333,0,0,-1.3333333,114.33067,42.518667)" />
    <path
       id="path9"
       d="M 12.713406,7.03125e-4 V -4.6047656 H 11.272 l -0.398437,2.9765625 c -0.01172,0.1054687 -0.07031,0.1992187 -0.1875,0.28125 -0.117188,0.09375 -0.246094,0.140625 -0.351563,0.140625 H 5.131375 V -14.917266 c 0,-0.128906 0.046875,-0.246093 0.140625,-0.351562 0.082031,-0.128906 0.2226563,-0.1875 0.3984375,-0.199219 l 1.3242188,-0.09375 v -1.066406 H 0.66653125 v 1.066406 l 1.44140625,0.09375 c 0.1757813,0.01172 0.3164063,0.07031 0.3867188,0.199219 0.09375,0.105469 0.1289062,0.222656 0.1289062,0.351562 v 13.2070316 c 0,0.1289063 -0.035156,0.2460938 -0.1289062,0.3515625 -0.070312,0.1171875 -0.2109375,0.1875 -0.3867188,0.1992188 l -1.44140625,0.09375 V 7.03125e-4 Z m 14.000977,0 V -0.97195313 l -1.089844,-0.0703125 c -0.152344,-0.011719 -0.269531,-0.070312 -0.386719,-0.1640625 -0.105468,-0.1054688 -0.164062,-0.2226563 -0.164062,-0.375 V -12.245391 h -1.019531 l -3.023438,0.972657 v 0.84375 h 1.746094 v 8.2968746 c -0.304688,0.1523438 -0.691406,0.3046875 -1.183594,0.4921875 -0.503906,0.1640625 -0.996094,0.2460938 -1.5,0.2460938 -0.890625,0 -1.5,-0.234375 -1.851562,-0.7382813 -0.363282,-0.4921875 -0.550782,-1.171875 -0.550782,-2.0507812 V -12.245391 H 16.70657 l -3.058593,0.972657 v 0.84375 h 1.734375 v 6.7148434 c 0,1.3945312 0.304687,2.4023437 0.925781,3.05859372 0.597656,0.6328125 1.429687,0.9609375 2.496094,0.9609375 0.503906,0 0.996093,-0.09375 1.488281,-0.304687495 0.503906,-0.199218755 0.972656,-0.421875005 1.40625,-0.691406255 0.433594,-0.26953125 0.796875,-0.50390627 1.078125,-0.72656247 V 7.03125e-4 Z m 0,0"
       style="fill:#dbdfe9;fill-opacity:1;fill-rule:nonzero;stroke:none"
       aria-label="Lu"
       transform="matrix(1.3333333,0,0,1.3333333,167.97067,53.46)" />
    <path
       style="font-size:8.9664px;font-family:'PT Sans';fill:#dbdfe9"
       d="M 4.4742337,0 H 0.76214401 V -6.2764801 H 1.5063552 v 5.61296649 h 2.9678785 z"
       id="text9"
       transform="matrix(1.3333333,0,0,1.3333333,163.24667,75.477333)"
       aria-label="L" />
    <path
       style="font-size:8.9664px;font-family:'PT Sans';fill:#dbdfe9"
       d="m 1.3359936,-4.4832001 v 2.5554241 q 0,0.3496896 0.035866,0.6186816 0.044832,0.2600256 0.1434624,0.43935359 0.09863,0.1703616 0.268992,0.2600256 0.1703616,0.089664 0.4303872,0.089664 0.2420928,0 0.4303872,-0.0717312 0.1882944,-0.0806976 0.3317568,-0.2151936 0.1524289,-0.13449601 0.2600257,-0.30485759 0.1165632,-0.179328 0.1882944,-0.3765888 v -2.9947777 h 0.717312 v 3.2099713 q 0,0.32279038 0.017933,0.67247999 Q 4.1873089,-0.2600256 4.2411073,0 h -0.493152 l -0.179328,-0.70834561 h -0.044832 q -0.2062272,0.3496896 -0.5559169,0.58281601 -0.3496896,0.2331264 -0.8876736,0.2331264 -0.358656,0 -0.6366144,-0.089664 Q 1.1745984,-0.0627648 0.98630402,-0.2779584 0.80697601,-0.49315201 0.70834561,-0.85180801 0.61868161,-1.2194304 0.61868161,-1.7753472 v -2.7078529 z m 3.5955225,0 h 0.6993793 v -0.8876736 l 0.717312,-0.2062272 v 1.0939008 h 1.2194304 v 0.627648 H 6.3482074 v 2.4836929 q 0,0.46625279 0.1165632,0.66351359 0.1165632,0.1882944 0.3945216,0.1882944 0.2331264,0 0.3945216,-0.044832 0.1613952,-0.0537984 0.358656,-0.134496 L 7.773865,-0.1524288 Q 7.5317722,-0.0358656 7.2448474,0.0358656 6.9579226,0.1075968 6.6261658,0.1075968 q -0.5469504,0 -0.7711104,-0.3048576 -0.22416,-0.31382401 -0.22416,-1.0401024 V -3.8555521 H 4.9315161 Z m 6.8055039,4.12454409 q -0.268992,0.21519361 -0.681446,0.34072321 -0.403488,0.1255296 -0.860775,0.1255296 -0.5110843,0 -0.8876732,-0.1613952 Q 8.930537,-0.22416 8.6884442,-0.52901761 8.4463514,-0.84284161 8.3297882,-1.2732288 8.213225,-1.703616 8.213225,-2.2416 q 0,-1.1476993 0.5110848,-1.7484481 0.5110848,-0.6007488 1.4615232,-0.6007488 0.304858,0 0.609715,0.071731 0.304858,0.062765 0.546951,0.2510592 0.242092,0.1882944 0.394521,0.537984 0.152429,0.3407232 0.152429,0.9056065 0,0.2958912 -0.0538,0.6545472 H 8.9574362 q 0,0.3945216 0.080698,0.6993792 0.080698,0.3048576 0.2510592,0.52005118 0.1703616,0.20622721 0.4393537,0.32279041 0.2779583,0.1075968 0.6724803,0.1075968 0.304857,0 0.609715,-0.1075968 0.304857,-0.1075968 0.457286,-0.2510592 z M 10.194799,-3.9631489 q -0.5290171,0 -0.8518076,0.2779584 -0.313824,0.2779584 -0.3765888,0.9504385 H 11.19007 q 0,-0.6814465 -0.260026,-0.9504385 -0.260025,-0.2779584 -0.735245,-0.2779584 z m 2.232629,-0.5200512 h 0.699379 v -0.8876736 l 0.717312,-0.2062272 v 1.0939008 h 1.21943 v 0.627648 h -1.21943 v 2.4836929 q 0,0.46625279 0.116563,0.66351359 0.116563,0.1882944 0.394522,0.1882944 0.233126,0 0.394521,-0.044832 0.161396,-0.0537984 0.358656,-0.134496 l 0.161396,0.54695041 q -0.242093,0.1165632 -0.529018,0.1882944 -0.286925,0.0717312 -0.618682,0.0717312 -0.54695,0 -0.77111,-0.3048576 -0.22416,-0.31382401 -0.22416,-1.0401024 v -2.6181889 h -0.699379 z m 3.783827,0 h 0.717312 V 0 h -0.717312 z m -0.152429,-1.3628928 q 0,-0.2062272 0.134496,-0.3496896 0.143462,-0.1524288 0.358656,-0.1524288 0.215193,0 0.367622,0.1524288 0.152429,0.1434624 0.152429,0.3496896 0,0.2062272 -0.152429,0.3407232 -0.152429,0.134496 -0.367622,0.134496 -0.215194,0 -0.358656,-0.134496 -0.134496,-0.134496 -0.134496,-0.3407232 z m 3.048572,1.3628928 v 2.5554241 q 0,0.3496896 0.03587,0.6186816 0.04483,0.2600256 0.143463,0.43935359 0.09863,0.1703616 0.268992,0.2600256 0.170361,0.089664 0.430387,0.089664 0.242093,0 0.430387,-0.0717312 0.188295,-0.0806976 0.331757,-0.2151936 0.152429,-0.13449601 0.260026,-0.30485759 0.116563,-0.179328 0.188294,-0.3765888 v -2.9947777 h 0.717312 v 3.2099713 q 0,0.32279038 0.01793,0.67247999 Q 21.958713,-0.2600256 22.012512,0 H 21.51936 L 21.340032,-0.70834561 H 21.2952 q -0.206228,0.3496896 -0.555917,0.58281601 -0.34969,0.2331264 -0.887674,0.2331264 -0.358656,0 -0.636614,-0.089664 Q 18.946003,-0.0627648 18.757708,-0.2779584 18.57838,-0.49315201 18.47975,-0.85180801 18.390086,-1.2194304 18.390086,-1.7753472 V -4.4832001 Z M 25.921858,0 v -2.5374912 q 0,-0.358656 -0.03587,-0.6186817 -0.0269,-0.268992 -0.116563,-0.44832 -0.08966,-0.179328 -0.260025,-0.268992 -0.161396,-0.089664 -0.430388,-0.089664 -0.412454,0 -0.690412,0.2510592 -0.268992,0.2510592 -0.376589,0.627648 V 0 h -0.717312 v -4.4832001 h 0.502118 l 0.134496,0.5469504 h 0.03587 q 0.242093,-0.2869248 0.555917,-0.4662528 0.32279,-0.1882944 0.833875,-0.1882944 0.430387,0 0.699379,0.1703616 0.277958,0.1613952 0.430387,0.5738496 0.206227,-0.3496896 0.564883,-0.5469504 0.367623,-0.1972608 0.824909,-0.1972608 0.376589,0 0.636615,0.089664 0.260025,0.080698 0.430387,0.2958912 0.170362,0.2151936 0.242093,0.582816 0.0807,0.3676224 0.0807,0.9325057 V 0 h -0.717312 v -2.6988864 q 0,-0.3227904 -0.03586,-0.5559169 -0.0269,-0.2420928 -0.12553,-0.3945216 -0.08966,-0.1613952 -0.260026,-0.2331264 -0.161395,-0.080698 -0.430387,-0.080698 -0.44832,0 -0.699379,0.2510592 -0.251059,0.2510592 -0.358656,0.7173121 V 0 Z"
       id="text10"
       transform="matrix(1.3333333,0,0,1.3333333,169.1884,75.477333)"
       aria-label="utetium" />
    <path
       style="font-weight:700;font-size:8.9664px;font-family:'PT Sans';fill:#dbdfe9"
       d="M 0.93250562,0 2.9858112,-4.8328897 3.3803329,-5.2722433 2.8423488,-5.1825793 H 0.53798401 V -6.2764801 H 4.5818305 v 0.3407232 L 2.0712384,0 Z M 5.9895503,-0.98630402 H 7.2358799 V -4.5280321 l 0.134496,-0.6097152 -0.4303872,0.5290176 -0.7980096,0.5469504 -0.493152,-0.67248 2.0443392,-1.6498176 h 0.6545472 v 5.39777288 H 9.5671439 V 0 H 5.9895503 Z"
       id="text11"
       transform="matrix(1.3333333,0,0,1.3333333,153.03867,17.976)"
       aria-label="71" />
    <path
       style="font-size:8.9664px;font-family:'PT Sans';fill:#dbdfe9"
       d="M 0.96837122,-0.66351361 H 2.2236672 V -5.0032513 l 0.089664,-0.5290176 -0.358656,0.4214208 -0.98630398,0.7083456 -0.34072321,-0.4572864 1.97260799,-1.524288 h 0.3227904 v 5.72056329 H 4.1514433 V 0 H 0.96837122 Z M 5.8729927,0 8.1235592,-5.2543105 8.5180808,-5.6936641 7.9890632,-5.6129665 H 5.4336391 v -0.6635136 h 3.7479553 v 0.2420928 L 6.5992711,0 Z M 14.471771,-1.927776 H 13.413736 V 0 H 12.714357 V -1.927776 H 9.9527054 V -2.2236672 L 12.92955,-6.3751105 h 0.484186 v 3.8196865 h 1.058035 z m -1.757414,-2.5823233 0.08966,-0.7352448 h -0.0269 l -0.313824,0.6097152 -1.264262,1.7125825 -0.430387,0.4393536 0.627648,-0.071731 h 1.318061 z m 2.385063,4.09764489 q 0,-0.2420928 0.134496,-0.3765888 0.143463,-0.14346241 0.376589,-0.14346241 0.242093,0 0.385555,0.14346241 0.143463,0.134496 0.143463,0.3765888 0,0.23312641 -0.143463,0.37658881 -0.143462,0.1434624 -0.385555,0.1434624 -0.233126,0 -0.376589,-0.1434624 Q 15.09942,-0.179328 15.09942,-0.41245441 Z m 1.945715,-3.96314889 q 0,-0.4303872 0.12553,-0.7980096 0.125529,-0.3676224 0.367622,-0.6366144 0.242093,-0.268992 0.600749,-0.4214208 0.367622,-0.1524288 0.851808,-0.1524288 0.914573,0 1.425657,0.5917824 0.511085,0.5917824 0.511085,1.6677504 0,1.0132032 -0.233126,1.7753473 -0.22416,0.7531776 -0.627648,1.2732288 -0.403488,0.52005119 -0.959405,0.8159424 -0.54695,0.2869248 -1.192531,0.3676224 l -0.161395,-0.57384961 q 0.520051,-0.0806976 0.932505,-0.3048576 0.421421,-0.22416001 0.717312,-0.56488319 0.304858,-0.3407232 0.493152,-0.7711104 0.188295,-0.4393536 0.260026,-0.9504384 -0.242093,0.2869248 -0.537984,0.403488 -0.286925,0.1075968 -0.762144,0.1075968 -0.367623,0 -0.699379,-0.1165632 -0.322791,-0.1255296 -0.57385,-0.358656 -0.251059,-0.2331265 -0.394522,-0.5738497 -0.143462,-0.3407232 -0.143462,-0.7800768 z m 0.744211,-0.071731 q 0,0.6366144 0.331757,0.9594048 0.340723,0.313824 0.887674,0.313824 0.439353,0 0.753177,-0.1434624 0.313824,-0.1434624 0.44832,-0.3765888 0.01793,-0.1165632 0.01793,-0.2062272 0,-0.089664 0,-0.1882944 0,-0.3227904 -0.0807,-0.6186816 -0.07173,-0.3048576 -0.22416,-0.537984 -0.152428,-0.2420928 -0.403488,-0.3765888 -0.242092,-0.134496 -0.573849,-0.134496 -0.546951,0 -0.851808,0.3496896 -0.304858,0.3407232 -0.304858,0.9594048 z M 22.451874,0 l 2.250567,-5.2543105 0.394522,-0.4393536 -0.529018,0.080698 h -2.555424 v -0.6635136 h 3.747955 v 0.2420928 L 23.178153,0 Z"
       id="text12"
       transform="matrix(1.3333333,0,0,1.3333333,184.75333,17.970667)"
       aria-label="174.97" />
    <path
       id="path12"
       d="m 89.29231,-28.3468 v 56.69362 h 56.69364 V -28.3468 Z"
       style="fill:#2272b3;fill-opacity:1;fill-rule:nonzero;stroke:#dbdfe9;stroke-width:1.41731;stroke-linecap:butt;stroke-linejoin:miter;stroke-miterlimit:10;stroke-dasharray:none;stroke-opacity:1"
       transform="matrix(1.3333333,0,0,-1.3333333,114.33067,42.518667)" />
    <path
       id="path13"
       d="M 16.079211,0.06914062 V -1.0441406 c -0.773438,0 -1.371094,-0.1054688 -1.804688,-0.3164063 -0.445312,-0.1992187 -0.761718,-0.4921875 -0.984375,-0.84375 -0.210937,-0.3515625 -0.363281,-0.75 -0.46875,-1.1953125 -0.117187,-0.4453125 -0.210937,-0.9023437 -0.316406,-1.3710937 -0.105469,-0.46875 -0.269531,-0.9140625 -0.46875,-1.359375 -0.210937,-0.4335938 -0.539062,-0.8203125 -0.972656,-1.1601563 -0.421875,-0.3515625 -1.03125,-0.609375 -1.7929688,-0.796875 0.703125,-0.1523437 1.3593748,-0.3984375 1.9804688,-0.7148437 0.609375,-0.3164063 1.113281,-0.75 1.5,-1.2890629 0.398437,-0.5625 0.585937,-1.277343 0.585937,-2.132812 0,-1.628906 -0.539062,-2.789063 -1.617187,-3.433594 -1.089844,-0.644531 -2.5781251,-0.972656 -4.4531251,-0.972656 H 0.79796094 v 1.066406 l 1.28906246,0.09375 c 0.1757813,0.01172 0.3046875,0.07031 0.4101563,0.199219 0.082031,0.105469 0.1289062,0.222656 0.1289062,0.351562 v 13.2070316 c 0,0.1289063 -0.046875,0.2460938 -0.1289062,0.3515625 -0.1054688,0.1171875 -0.234375,0.1875 -0.4101563,0.1992188 l -1.28906246,0.09375 v 1.06640622 H 6.9620234 V -1.0675781 l -1.3125,-0.09375 C 5.4737422,-1.1730469 5.3448359,-1.2433594 5.2510859,-1.3605469 5.1807734,-1.4660156 5.1338984,-1.5832031 5.1338984,-1.7121094 v -5.6484375 c 0.023437,0 0.140625,-0.011719 0.3867188,-0.023437 0.2226562,-0.011719 0.46875,-0.023437 0.7265625,-0.023437 0.8671875,0 1.5585937,0.140625 2.0625,0.421875 0.515625,0.28125 0.9140625,0.65625 1.1953125,1.125 0.2695312,0.4570313 0.5039058,0.9726563 0.6562498,1.5234375 0.164063,0.5507813 0.316406,1.1015625 0.492188,1.6640625 0.140625,0.5507813 0.363281,1.0664063 0.621093,1.5351563 0.28125,0.45703122 0.65625,0.83203122 1.171875,1.11328122 0.480469,0.28125 1.160157,0.421875 2.003907,0.421875 0.375,0 0.714843,-0.046875 1.019531,-0.15234375 0.304687,-0.1171875 0.503906,-0.1640625 0.609375,-0.17578225 z m -5.4375,-12.18749962 c 0,1.324218 -0.363281,2.2382809 -1.1015626,2.7539059 -0.7382812,0.5039062 -1.7929687,0.7617187 -3.1757812,0.7617187 -0.1875,0 -0.4335938,0 -0.7265625,-0.011719 -0.3046875,-0.011719 -0.46875,-0.011719 -0.5039063,-0.011719 v -6.7968746 h 1.1367188 c 1.5585937,0 2.6835937,0.292968 3.3632812,0.867188 0.6679686,0.5625 1.0078126,1.382812 1.0078126,2.4375 z m 17.642578,12.11718712 v -0.97265625 l -1.195312,-0.0703125 c -0.152344,-0.011719 -0.269532,-0.070312 -0.375,-0.1640625 -0.105469,-0.1054688 -0.152344,-0.2226563 -0.152344,-0.375 v -6.9492188 c 0,-0.7148437 -0.105469,-1.359375 -0.339844,-1.9218751 -0.222656,-0.5625 -0.609375,-0.996094 -1.183594,-1.3125 -0.5625,-0.328125 -1.347656,-0.480469 -2.378906,-0.480469 -0.808594,0 -1.628906,0.09375 -2.414062,0.316407 -0.796875,0.1875 -1.453125,0.515625 -1.96875,0.9375 -0.515625,0.433593 -0.773438,0.9960934 -0.773438,1.6757809 0,0.3046875 0.09375,0.5039062 0.292969,0.5742187 0.1875,0.1054688 0.398437,0.140625 0.621094,0.140625 h 1.804687 v -2.1562496 c 0.128906,-0.04687 0.339844,-0.105469 0.65625,-0.199219 0.304688,-0.08203 0.679688,-0.117188 1.101563,-0.117188 1.535156,0 2.308593,0.808594 2.308593,2.4492191 v 1.0664063 c -1.617187,0.3515625 -2.929687,0.6914062 -3.890625,1.0429687 -0.996093,0.3398438 -1.722656,0.6914063 -2.226562,1.0429688 -0.492188,0.3632812 -0.832031,0.7382812 -0.996094,1.1367187 -0.152344,0.3984375 -0.246094,0.8320313 -0.246094,1.2890625 0,1.0429688 0.316407,1.8632813 0.949219,2.44921871 0.621094,0.59765625 1.382813,0.90234375 2.273438,0.90234375 0.480468,0 0.972656,-0.0820312 1.453125,-0.26953125 0.492187,-0.17578125 0.9375,-0.38671875 1.347656,-0.62109375 0.398437,-0.22265625 0.726562,-0.43359366 0.972656,-0.60937496 l 0.363281,-0.2695312 0.328125,1.46484366 z m -3.996094,-2.33203122 -0.292968,0.1757812 c -0.175782,0.1054688 -0.433594,0.2460938 -0.738282,0.4101563 -0.292968,0.1523437 -0.632812,0.2929687 -0.984375,0.4101562 -0.351562,0.1171875 -0.703125,0.1757813 -1.03125,0.1757813 -0.597656,0 -1.042968,-0.2226563 -1.382812,-0.65625 -0.316406,-0.421875 -0.480469,-0.890625 -0.480469,-1.40625 0,-0.3046875 0.04687,-0.5976563 0.140625,-0.890625 0.117188,-0.28125 0.316406,-0.5625 0.644531,-0.84375 0.328125,-0.2695313 0.808594,-0.5625 1.464844,-0.8320313 0.667969,-0.28125 1.546875,-0.5507812 2.660156,-0.8320312 z"
       style="fill:#dbdfe9;fill-opacity:1;fill-rule:nonzero;stroke:none"
       aria-label="Ra"
       transform="matrix(1.3333333,0,0,1.3333333,252.04933,53.4)"
       sodipodi:nodetypes="cccccscccccscsccccssccccccccsccsccccccsccscscccscsccccssccsccscscccssccccscscccccccscsscsccccc" />
    <path
       style="font-size:8.9664px;font-family:'PT Sans';fill:#dbdfe9"
       d="m 0.76214401,-6.2137153 q 0.34072319,-0.062765 0.78007679,-0.09863 0.44832,-0.035866 0.8159424,-0.035866 0.4124544,0 0.7800769,0.089664 0.3765888,0.089664 0.6545472,0.2958912 0.2869248,0.2062272 0.4572864,0.537984 0.1703616,0.3317568 0.1703616,0.806976 0,0.7352448 -0.403488,1.1925312 -0.403488,0.4572865 -1.0221697,0.6097153 L 3.4251649,-2.4836928 4.9853185,0 H 4.1155777 L 2.3850624,-2.7078528 1.5063552,-2.8423488 V 0 H 0.76214401 Z M 2.376096,-5.7026305 q -0.1165632,0 -0.2420928,0 -0.1255296,0 -0.2420928,0.00897 -0.1165632,0.00897 -0.22416,0.017933 -0.09863,0.00897 -0.1613952,0.026899 v 2.3133312 h 0.6993792 q 0.6186816,0 1.0221697,-0.3048576 0.403488,-0.3048576 0.403488,-0.9504384 0,-0.4841856 -0.3317568,-0.7980096 -0.3317569,-0.313824 -0.9235393,-0.313824 z"
       id="text13"
       transform="matrix(1.3333333,0,0,1.3333333,251.82533,75.477333)"
       aria-label="R" />
    <path
       style="font-size:8.9664px;font-family:'PT Sans';fill:#dbdfe9"
       d="m 0.61868161,-4.1514433 q 0.34072321,-0.2062272 0.78904319,-0.3048576 0.4572864,-0.09863 0.9504384,-0.09863 0.4662528,0 0.7442113,0.1255296 0.2869248,0.1255296 0.4303872,0.3317568 0.1524288,0.1972608 0.1972608,0.4393536 0.053798,0.2420928 0.053798,0.4841856 0,0.5379841 -0.026899,1.0490689 -0.026899,0.5110848 -0.026899,0.9683712 0,0.33175679 0.026899,0.62764799 0.026899,0.29589121 0.09863,0.54695041 H 3.3265345 L 3.1382401,-0.60971521 h -0.044832 q -0.080698,0.1255296 -0.2062273,0.2510592 -0.1165632,0.11656321 -0.2869248,0.21519361 -0.1703616,0.089664 -0.3945216,0.1524288 -0.22416,0.0627648 -0.5110848,0.0627648 -0.2869248,0 -0.537984,-0.089664 -0.24209279,-0.089664 -0.42142079,-0.2510592 -0.179328,-0.17036161 -0.2869248,-0.40348801 -0.0986304,-0.2331264 -0.0986304,-0.52901759 0,-0.3945216 0.1613952,-0.6545472 0.1613952,-0.268992 0.44832001,-0.4214208 0.29589118,-0.1613952 0.69937918,-0.22416 0.4124544,-0.071731 0.9056064,-0.071731 0.1255296,0 0.2420928,0 0.1255296,0 0.2510592,0.017933 0.026899,-0.268992 0.026899,-0.4841856 0,-0.4931521 -0.1972609,-0.6904129 -0.1972608,-0.1972608 -0.717312,-0.1972608 -0.1524288,0 -0.3317568,0.026899 -0.1703616,0.017933 -0.358656,0.062765 -0.179328,0.035866 -0.3496896,0.09863 -0.16139518,0.053798 -0.28692479,0.1255296 z m 1.27322879,3.59552649 q 0.2510592,0 0.44832,-0.0627648 0.1972608,-0.0717312 0.3407232,-0.1703616 0.1434624,-0.1075968 0.2331264,-0.23312639 0.09863,-0.1255296 0.1434624,-0.2420928 v -0.7442112 q -0.1255296,-0.00897 -0.2600256,-0.00897 -0.1255296,-0.00897 -0.2510592,-0.00897 -0.2779584,0 -0.5469504,0.035866 -0.2600256,0.026899 -0.4662528,0.1165632 -0.1972608,0.080698 -0.3227904,0.2331264 -0.1165632,0.1434624 -0.1165632,0.3676224 0,0.31382398 0.22416,0.52005119 0.22416,0.1972608 0.5738496,0.1972608 z M 8.5808476,-1.5422208 q 0,0.4572864 0.00897,0.83387519 0.00897,0.3676224 0.080698,0.72627841 H 8.186326 L 8.006998,-0.61868161 H 7.9711324 Q 7.7918044,-0.3048576 7.4510812,-0.0986304 7.110358,0.1075968 6.6530716,0.1075968 q -0.89664,0 -1.3359936,-0.56488321 -0.4303872,-0.56488319 -0.4303872,-1.76638079 0,-1.1476993 0.537984,-1.7394817 0.5469504,-0.6007488 1.4973888,-0.6007488 0.3317568,0 0.5200512,0.035866 0.1972608,0.035866 0.4214208,0.1165632 v -1.8650112 h 0.717312 z m -1.8112128,1.02216959 q 0.4572864,0 0.7262784,-0.2331264 0.268992,-0.24209281 0.3676224,-0.72627839 v -2.2236673 q -0.1613952,-0.1255296 -0.3676224,-0.179328 -0.2062272,-0.053798 -0.5469504,-0.053798 -0.6186816,0 -0.9683712,0.4124544 -0.3496896,0.403488 -0.3496896,1.3001281 0,0.3676224 0.053798,0.6814464 0.062765,0.313824 0.1972608,0.537984 0.134496,0.22415999 0.3496896,0.35865599 0.22416,0.1255296 0.537984,0.1255296 z M 10.114103,-4.4832001 h 0.717312 V 0 H 10.114103 Z M 9.961674,-5.8460929 q 0,-0.2062272 0.134496,-0.3496896 0.143462,-0.1524288 0.358656,-0.1524288 0.215194,0 0.367622,0.1524288 0.152429,0.1434624 0.152429,0.3496896 0,0.2062272 -0.152429,0.3407232 -0.152428,0.134496 -0.367622,0.134496 -0.215194,0 -0.358656,-0.134496 -0.134496,-0.134496 -0.134496,-0.3407232 z m 3.048573,1.3628928 v 2.5554241 q 0,0.3496896 0.03587,0.6186816 0.04483,0.2600256 0.143462,0.43935359 0.09863,0.1703616 0.268992,0.2600256 0.170362,0.089664 0.430387,0.089664 0.242093,0 0.430388,-0.0717312 0.188294,-0.0806976 0.331756,-0.2151936 0.152429,-0.13449601 0.260026,-0.30485759 0.116563,-0.179328 0.188294,-0.3765888 v -2.9947777 h 0.717312 v 3.2099713 q 0,0.32279038 0.01793,0.67247999 Q 15.861562,-0.2600256 15.915361,0 h -0.493152 l -0.179328,-0.70834561 h -0.04483 q -0.206227,0.3496896 -0.555917,0.58281601 -0.34969,0.2331264 -0.887674,0.2331264 -0.358656,0 -0.636614,-0.089664 -0.268992,-0.0806976 -0.457287,-0.2958912 -0.179328,-0.21519361 -0.277958,-0.57384961 -0.08966,-0.36762239 -0.08966,-0.92353919 V -4.4832001 Z M 19.824707,0 v -2.5374912 q 0,-0.358656 -0.03587,-0.6186817 -0.0269,-0.268992 -0.116564,-0.44832 -0.08966,-0.179328 -0.260025,-0.268992 -0.161395,-0.089664 -0.430387,-0.089664 -0.412455,0 -0.690413,0.2510592 -0.268992,0.2510592 -0.376589,0.627648 V 0 h -0.717312 v -4.4832001 h 0.502118 l 0.134496,0.5469504 h 0.03587 q 0.242093,-0.2869248 0.555917,-0.4662528 0.32279,-0.1882944 0.833875,-0.1882944 0.430387,0 0.699379,0.1703616 0.277959,0.1613952 0.430387,0.5738496 0.206228,-0.3496896 0.564884,-0.5469504 0.367622,-0.1972608 0.824908,-0.1972608 0.376589,0 0.636615,0.089664 0.260026,0.080698 0.430387,0.2958912 0.170362,0.2151936 0.242093,0.582816 0.0807,0.3676224 0.0807,0.9325057 V 0 h -0.717312 v -2.6988864 q 0,-0.3227904 -0.03587,-0.5559169 -0.0269,-0.2420928 -0.12553,-0.3945216 -0.08966,-0.1613952 -0.260025,-0.2331264 -0.161396,-0.080698 -0.430388,-0.080698 -0.44832,0 -0.699379,0.2510592 -0.251059,0.2510592 -0.358656,0.7173121 V 0 Z"
       id="text14"
       transform="matrix(1.3333333,0,0,1.3333333,258.81913,75.477333)"
       aria-label="adium" />
    <path
       style="font-weight:700;font-size:8.9664px;font-family:'PT Sans';fill:#dbdfe9"
       d="m 0.54695041,-1.5332544 q 0,-0.313824 0.0806976,-0.5559168 0.0806976,-0.2510592 0.22416,-0.44832 Q 1.0042368,-2.7437184 1.2014976,-2.9051136 1.4077248,-3.0665089 1.6408512,-3.2010049 1.2014976,-3.4789633 0.95043842,-3.8376193 0.69937921,-4.2052417 0.69937921,-4.7432257 q 0,-0.3496896 0.1255296,-0.6545472 0.13449601,-0.3048576 0.37658879,-0.5290176 0.2510592,-0.22416 0.6007488,-0.3496896 0.3496896,-0.1255296 0.7890432,-0.1255296 0.403488,0 0.7352449,0.1075968 0.3317568,0.1075968 0.5648832,0.3048576 0.2420928,0.1972608 0.3676224,0.4841856 0.134496,0.2779584 0.134496,0.6186816 0,0.5290176 -0.2420928,0.89664 -0.2331264,0.3676224 -0.6904128,0.67248 0.537984,0.3138241 0.806976,0.6904129 0.2779584,0.3765888 0.2779584,0.9683712 0,0.403488 -0.1524288,0.73524478 Q 4.2500737,-0.60074881 3.9810817,-0.36762241 3.7120897,-0.134496 3.3355009,0 2.958912,0.1255296 2.510592,0.1255296 2.062272,0.1255296 1.6946496,0 1.3359936,-0.1165632 1.075968,-0.33175681 0.82490881,-0.54695041 0.68144641,-0.85180801 0.54695041,-1.1566656 0.54695041,-1.5332544 Z M 3.4341313,-1.6498176 q 0,-0.2062272 -0.09863,-0.3765888 -0.09863,-0.1703616 -0.2600256,-0.3048576 -0.1524289,-0.1434624 -0.3496897,-0.2600256 -0.1882944,-0.1165632 -0.3855552,-0.22416 -0.4214208,0.2420928 -0.582816,0.5290176 -0.1524288,0.2779584 -0.1524288,0.5559168 0,0.358656 0.2420928,0.6186816 0.2510592,0.25105919 0.6904128,0.25105919 0.403488,0 0.6455809,-0.19726079 0.2510592,-0.1972608 0.2510592,-0.5917824 z M 1.8112128,-4.7252929 q 0,0.2151936 0.080698,0.3765888 0.080698,0.1613952 0.2151936,0.2869248 0.1434624,0.1165632 0.313824,0.22416 0.179328,0.09863 0.3676224,0.1882944 0.5379841,-0.4572864 0.5379841,-1.0042368 0,-0.3765888 -0.22416,-0.5648832 -0.2151937,-0.1972608 -0.5290177,-0.1972608 -0.3945216,0 -0.582816,0.2062272 -0.179328,0.2062272 -0.179328,0.4841856 z m 3.8196815,3.1920385 q 0,-0.313824 0.080698,-0.5559168 0.080698,-0.2510592 0.22416,-0.44832 0.1524288,-0.2062272 0.3496896,-0.3676224 0.2062272,-0.1613953 0.4393536,-0.2958913 -0.4393536,-0.2779584 -0.6904128,-0.6366144 -0.2510592,-0.3676224 -0.2510592,-0.9056064 0,-0.3496896 0.1255296,-0.6545472 0.134496,-0.3048576 0.3765888,-0.5290176 0.2510592,-0.22416 0.6007488,-0.3496896 0.3496896,-0.1255296 0.7890432,-0.1255296 0.403488,0 0.7352448,0.1075968 0.3317568,0.1075968 0.5648832,0.3048576 0.2420928,0.1972608 0.3676224,0.4841856 0.134496,0.2779584 0.134496,0.6186816 0,0.5290176 -0.2420928,0.89664 -0.2331264,0.3676224 -0.6904128,0.67248 0.537984,0.3138241 0.806976,0.6904129 0.2779584,0.3765888 0.2779584,0.9683712 0,0.403488 -0.1524288,0.73524478 Q 9.3340175,-0.60074881 9.0650255,-0.36762241 8.7960335,-0.134496 8.4194447,0 8.0428559,0.1255296 7.5945359,0.1255296 7.1462159,0.1255296 6.7785935,0 6.4199375,-0.1165632 6.1599119,-0.33175681 5.9088527,-0.54695041 5.7653903,-0.85180801 5.6308943,-1.1566656 5.6308943,-1.5332544 Z m 2.8871808,-0.1165632 q 0,-0.2062272 -0.09863,-0.3765888 -0.09863,-0.1703616 -0.2600256,-0.3048576 -0.1524288,-0.1434624 -0.3496896,-0.2600256 -0.1882944,-0.1165632 -0.3855552,-0.22416 -0.4214208,0.2420928 -0.582816,0.5290176 -0.1524288,0.2779584 -0.1524288,0.5559168 0,0.358656 0.2420928,0.6186816 0.2510592,0.25105919 0.6904128,0.25105919 0.403488,0 0.6455808,-0.19726079 0.2510592,-0.1972608 0.2510592,-0.5917824 z M 6.8951567,-4.7252929 q 0,0.2151936 0.080698,0.3765888 0.080698,0.1613952 0.2151936,0.2869248 0.1434624,0.1165632 0.313824,0.22416 0.179328,0.09863 0.3676224,0.1882944 0.537984,-0.4572864 0.537984,-1.0042368 0,-0.3765888 -0.22416,-0.5648832 -0.2151936,-0.1972608 -0.5290176,-0.1972608 -0.3945216,0 -0.582816,0.2062272 -0.179328,0.2062272 -0.179328,0.4841856 z"
       id="text15"
       transform="matrix(1.3333333,0,0,1.3333333,238.07867,17.976)"
       aria-label="88" />
    <path
       style="font-size:8.9664px;font-family:'PT Sans';fill:#dbdfe9"
       d="M 2.0353728,1.972608 Q 1.6229184,1.5422208 1.3359936,1.0221696 1.0490688,0.51108481 0.86974081,-0.0268992 0.69937921,-0.57384961 0.61868161,-1.1208 q -0.0806976,-0.5559168 -0.0806976,-1.0580352 0,-0.493152 0.0806976,-1.0401025 0.0806976,-0.5469504 0.2600256,-1.0939008 Q 1.0580352,-4.8687553 1.34496,-5.3977729 1.6408512,-5.9267905 2.062272,-6.3840769 l 0.4303872,0.313824 q -0.358656,0.4572864 -0.6007488,0.9504384 -0.2331264,0.4841856 -0.3765888,0.986304 -0.1434624,0.5021184 -0.2062272,1.0042368 -0.053798,0.4931521 -0.053798,0.9504385 0,0.4303872 0.062765,0.941472 0.071731,0.50211839 0.2151936,1.0132032 0.1524288,0.5021184 0.3855552,0.98630401 0.2420928,0.48418559 0.5738496,0.87870719 z m 4.4742398,-6.8234305 q 0,0.4752192 -0.179328,0.9773376 -0.1703616,0.493152 -0.4572864,0.9952705 -0.2779584,0.5021184 -0.627648,0.986304 -0.3496896,0.4752192 -0.6993792,0.90560638 l -0.4393536,0.38555521 v 0.0358656 L 4.680467,-0.66351361 H 6.6351423 V 0 H 3.066515 V -0.2600256 Q 3.2637758,-0.46625281 3.5417342,-0.77111041 3.8196926,-1.075968 4.1155838,-1.4435904 q 0.3048576,-0.3765888 0.5917824,-0.7890432 0.2958912,-0.4214208 0.5290176,-0.8518081 0.2420928,-0.4303872 0.3855552,-0.851808 0.1434624,-0.4214208 0.1434624,-0.7980096 0,-0.4393536 -0.2510592,-0.7262784 -0.2510592,-0.2958912 -0.762144,-0.2958912 -0.3407232,0 -0.6635136,0.1434624 -0.3227904,0.134496 -0.5559168,0.313824 L 3.2368766,-5.8102273 q 0.313824,-0.268992 0.7442112,-0.4214208 0.4303872,-0.1524288 0.9235392,-0.1524288 0.3855552,0 0.6814464,0.1165632 0.2958912,0.1075968 0.5021184,0.313824 0.2062272,0.2062272 0.313824,0.493152 0.1075968,0.2779584 0.1075968,0.6097152 z m 4.8866884,0 q 0,0.4752192 -0.179328,0.9773376 -0.170361,0.493152 -0.457286,0.9952705 -0.277958,0.5021184 -0.627648,0.986304 -0.3496897,0.4752192 -0.6993793,0.90560638 l -0.4393536,0.38555521 v 0.0358656 l 0.5738496,-0.0986304 H 11.521831 V 0 H 7.9532037 V -0.2600256 Q 8.1504645,-0.46625281 8.4284229,-0.77111041 8.7063813,-1.075968 9.0022725,-1.4435904 q 0.3048576,-0.3765888 0.5917824,-0.7890432 0.2958912,-0.4214208 0.5290181,-0.8518081 0.242092,-0.4303872 0.385555,-0.851808 0.143462,-0.4214208 0.143462,-0.7980096 0,-0.4393536 -0.251059,-0.7262784 -0.251059,-0.2958912 -0.7621441,-0.2958912 -0.3407232,0 -0.6635136,0.1434624 -0.3227904,0.134496 -0.5559168,0.313824 L 8.1235653,-5.8102273 q 0.313824,-0.268992 0.7442112,-0.4214208 0.4303872,-0.1524288 0.9235392,-0.1524288 0.3855553,0 0.6814463,0.1165632 0.295891,0.1075968 0.502119,0.313824 0.206227,0.2062272 0.313824,0.493152 0.107596,0.2779584 0.107596,0.6097152 z m 5.299143,2.9589121 q 0,0.4124544 -0.125529,0.7800768 -0.12553,0.35865599 -0.367623,0.63661439 -0.242092,0.26899201 -0.600748,0.43038721 -0.358656,0.1524288 -0.815943,0.1524288 -0.44832,0 -0.806976,-0.1434624 Q 13.619969,-0.179328 13.359944,-0.45728641 13.099918,-0.74421121 12.956456,-1.1566656 12.82196,-1.56912 12.82196,-2.107104 q 0,-0.8876736 0.22416,-1.6318849 0.233126,-0.7531776 0.636614,-1.3090944 0.403488,-0.5559168 0.950438,-0.89664 0.555917,-0.3496896 1.201498,-0.4393536 l 0.152429,0.5738496 q -0.502119,0.089664 -0.914573,0.3407232 -0.412454,0.2510592 -0.726278,0.6186816 -0.304858,0.3676224 -0.502119,0.8249088 -0.197261,0.4572864 -0.268992,0.941472 0.143463,-0.2420928 0.484186,-0.4393536 0.340723,-0.2062272 0.833875,-0.2062272 0.842842,0 1.318061,0.4841856 0.484185,0.4841857 0.484185,1.3539265 z m -0.744211,0.071731 q 0,-0.6366144 -0.295891,-0.9594048 -0.295891,-0.3227905 -0.914573,-0.3227905 -0.439353,0 -0.762144,0.2151937 -0.313824,0.2151936 -0.439353,0.4841856 -0.01793,0.1255296 -0.01793,0.2062272 0,0.080698 0,0.179328 0,0.2779584 0.07173,0.5469504 0.0807,0.268992 0.242093,0.48418558 0.161395,0.20622721 0.394521,0.34072321 0.242093,0.1255296 0.564884,0.1255296 0.260025,0 0.466252,-0.0986304 0.215194,-0.0986304 0.367623,-0.268992 0.152429,-0.17036159 0.233126,-0.41245439 0.08966,-0.2420928 0.08966,-0.5200512 z m 1.69465,-4.5638977 q 0.412454,0.4303872 0.699379,0.9504384 0.286925,0.5110848 0.457287,1.0580352 0.179328,0.537984 0.260025,1.0939008 0.0807,0.5469505 0.0807,1.0490689 0,0.493152 -0.0807,1.0401024 -0.0807,0.54695039 -0.260025,1.1028672 -0.179328,0.54695041 -0.47522,1.07596802 Q 18.040405,1.5153216 17.618984,1.972608 L 17.188597,1.658784 q 0.358656,-0.4572864 0.600748,-0.95043839 0.242093,-0.49315201 0.376589,-0.99527041 0.143463,-0.50211841 0.197261,-0.9952704 0.06276,-0.493152 0.06276,-0.9504384 0,-0.4303872 -0.07173,-0.9325057 -0.07173,-0.5021184 -0.22416,-1.0132032 -0.143463,-0.5110848 -0.376589,-0.9952704 -0.233127,-0.4841856 -0.564883,-0.8787072 z"
       id="text16"
       transform="matrix(1.3333333,0,0,1.3333333,278.04133,17.970667)"
       aria-label="(226)" />
  </g>
</svg>
