<?xml version="1.0" encoding="UTF-8" standalone="no"?>
<!-- Created with Inkscape (http://www.inkscape.org/) -->

<svg
   version="1.1"
   id="svg1"
   width="313.70001"
   height="85.038666"
   viewBox="0 0 313.70001 85.038666"
   sodipodi:docname="logo.pdf"
   xmlns:inkscape="http://www.inkscape.org/namespaces/inkscape"
   xmlns:sodipodi="http://sodipodi.sourceforge.net/DTD/sodipodi-0.dtd"
   xmlns="http://www.w3.org/2000/svg"
   xmlns:svg="http://www.w3.org/2000/svg">
  <defs
     id="defs1" />
  <sodipodi:namedview
     id="namedview1"
     pagecolor="#ffffff"
     bordercolor="#000000"
     borderopacity="0.25"
     inkscape:showpageshadow="2"
     inkscape:pageopacity="0.0"
     inkscape:pagecheckerboard="0"
     inkscape:deskcolor="#d1d1d1">
    <inkscape:page
       x="0"
       y="0"
       inkscape:label="1"
       id="page1"
       width="313.70001"
       height="85.038666"
       margin="0"
       bleed="0" />
  </sodipodi:namedview>
  <g
     id="g1"
     inkscape:groupmode="layer"
     inkscape:label="1">
    <path
       id="path2"
       d="m -82.20558,-28.3468 v 56.69362 h 56.69363 V -28.3468 Z"
       style="fill:#a11e35;fill-opacity:1;fill-rule:nonzero;stroke:#dbdfe9;stroke-width:1.41731;stroke-linecap:butt;stroke-linejoin:miter;stroke-miterlimit:10;stroke-dasharray:none;stroke-opacity:1"
       transform="matrix(1.3333333,0,0,-1.3333333,114.33067,42.518667)" />
    <path
       id="path3"
       d="m 16.254625,-15.563672 v -1.066406 H 11.33275 v 1.066406 l 1.359375,0.117188 c 0.117187,0.01172 0.210937,0.07031 0.28125,0.1875 0.08203,0.105468 0.09375,0.210937 0.05859,0.316406 L 8.848375,-2.7433594 4.489,-15.001172 c -0.023437,-0.07031 -0.011719,-0.152344 0.035156,-0.269531 0.035156,-0.105469 0.09375,-0.164063 0.1875,-0.175781 L 6.1765,-15.563672 v -1.066406 H 0.2468125 v 1.066406 l 1.4648437,0.246094 5.671875,15.71484362 H 9.27025 L 14.824937,-15.294141 Z m 0,0"
       style="fill:#dbdfe9;fill-opacity:1;fill-rule:nonzero;stroke:none"
       aria-label="V"
       transform="matrix(1.3333333,0,0,1.3333333,31.514667,53.4)" />
    <text
       id="text3"
       xml:space="preserve"
       transform="matrix(1.3333333,0,0,1.3333333,17.330667,75.477333)"><tspan
         id="tspan3"
         style="font-variant:normal;font-weight:normal;font-size:8.9664px;font-family:'PT Sans';writing-mode:lr-tb;fill:#dbdfe9;fill-opacity:1;fill-rule:nonzero;stroke:none"
         x="0"
         dx="0 -0.44832"
         y="0">Vanadium</tspan></text>
    <text
       id="text4"
       xml:space="preserve"
       transform="matrix(1.3333333,0,0,1.3333333,9.4173333,17.976)"><tspan
         id="tspan4"
         style="font-variant:normal;font-weight:700;font-size:8.9664px;font-family:'PT Sans';writing-mode:lr-tb;fill:#dbdfe9;fill-opacity:1;fill-rule:nonzero;stroke:none"
         x="0"
         y="0">23</tspan></text>
    <text
       id="text5"
       xml:space="preserve"
       transform="matrix(1.3333333,0,0,1.3333333,40.485333,17.970667)"><tspan
         id="tspan5"
         style="font-variant:normal;font-weight:normal;font-size:8.9664px;font-family:'PT Sans';writing-mode:lr-tb;fill:#dbdfe9;fill-opacity:1;fill-rule:nonzero;stroke:none"
         x="0"
         y="0">50.942</tspan></text>
    <path
       id="path5"
       d="M 18.42525,0 C 18.42525,10.1761 10.1761,18.42525 0,18.42525 -10.1761,18.42525 -18.42525,10.1761 -18.42525,0 c 0,-10.1761 8.24915,-18.42525 18.42525,-18.42525 10.1761,0 18.42525,8.24915 18.42525,18.42525 z"
       style="fill:#812fb4;fill-opacity:1;fill-rule:nonzero;stroke:#dbdfe9;stroke-width:1.41731;stroke-linecap:butt;stroke-linejoin:miter;stroke-miterlimit:10;stroke-dasharray:none;stroke-opacity:1"
       transform="matrix(1.3333333,0,0,-1.3333333,114.33067,42.518667)" />
    <path
       id="path6"
       d="m 11.308445,-1.2293594 v -1.5117187 c -0.5625,0.375 -1.183593,0.7148437 -1.8398434,1.0429687 -0.6796875,0.3164063 -1.3710938,0.4921875 -2.0859375,0.4921875 -0.796875,0 -1.4648438,-0.1640625 -1.9921875,-0.46875 -0.5390625,-0.2929687 -0.9609375,-0.703125 -1.2773438,-1.21875 -0.3164062,-0.5039062 -0.5273437,-1.078125 -0.6796875,-1.6992187 -0.1171875,-0.6210938 -0.1875,-1.2539063 -0.1875,-1.8867188 h 8.0273437 c 0.02344,-0.1054687 0.03516,-0.2226562 0.03516,-0.375 v -0.3046875 c 0,-1.4765625 -0.386718,-2.6953125 -1.171875,-3.6562501 -0.7734372,-0.949219 -1.9335934,-1.429687 -3.4687497,-1.429687 -1.125,0 -2.1210937,0.269531 -3,0.796875 -0.8789062,0.515625 -1.5703125,1.265625 -2.0742187,2.2265621 -0.4921875,0.9609375 -0.75000004,2.0859375 -0.75000004,3.375 0,1.3828125 0.26953124,2.53125 0.80859374,3.4335938 0.5507813,0.9140625 1.2539063,1.59374997 2.1210938,2.05078122 0.890625,0.43359375 1.8164062,0.66796875 2.8242187,0.66796875 0.8320313,0 1.6523438,-0.15234375 2.4492188,-0.4453125 0.8203125,-0.3046875 1.5703124,-0.66796875 2.2617184,-1.08984377 z M 8.8240703,-7.5926406 H 3.3748516 c 0.058594,-1.0546875 0.3867187,-1.8984375 0.9609375,-2.5078124 0.5625,-0.621094 1.265625,-0.925781 2.0742187,-0.925781 0.8320313,0 1.4296875,0.28125 1.8164063,0.832031 0.3984375,0.5624999 0.5976562,1.2539061 0.5976562,2.0624999 z m 0,0"
       style="fill:#dbdfe9;fill-opacity:1;fill-rule:nonzero;stroke:none"
       aria-label="e"
       transform="matrix(1.3333333,0,0,1.3333333,106.23067,50.381333)" />
    <path
       id="path7"
       d="M 6.8306484,-5.0390469 V -6.8906094 H 1.0884609 v 1.8515625 z m 0,0"
       style="fill:#dbdfe9;fill-opacity:1;fill-rule:nonzero;stroke:none"
       aria-label="-"
       transform="matrix(1.3333333,0,0,1.3333333,117.412,38.554667)" />
    <path
       id="path8"
       d="M 25.51196,-28.3468 V 28.34682 H 82.2056 V -28.3468 Z"
       style="fill:#22863a;fill-opacity:1;fill-rule:nonzero;stroke:#dbdfe9;stroke-width:1.41731;stroke-linecap:butt;stroke-linejoin:miter;stroke-miterlimit:10;stroke-dasharray:none;stroke-opacity:1"
       transform="matrix(1.3333333,0,0,-1.3333333,114.33067,42.518667)" />
    <path
       id="path9"
       d="M 12.713406,7.03125e-4 V -4.6047656 H 11.272 l -0.398437,2.9765625 c -0.01172,0.1054687 -0.07031,0.1992187 -0.1875,0.28125 -0.117188,0.09375 -0.246094,0.140625 -0.351563,0.140625 H 5.131375 V -14.917266 c 0,-0.128906 0.046875,-0.246093 0.140625,-0.351562 0.082031,-0.128906 0.2226563,-0.1875 0.3984375,-0.199219 l 1.3242188,-0.09375 v -1.066406 H 0.66653125 v 1.066406 l 1.44140625,0.09375 c 0.1757813,0.01172 0.3164063,0.07031 0.3867188,0.199219 0.09375,0.105469 0.1289062,0.222656 0.1289062,0.351562 v 13.2070316 c 0,0.1289063 -0.035156,0.2460938 -0.1289062,0.3515625 -0.070312,0.1171875 -0.2109375,0.1875 -0.3867188,0.1992188 l -1.44140625,0.09375 V 7.03125e-4 Z m 14.000977,0 V -0.97195313 l -1.089844,-0.0703125 c -0.152344,-0.011719 -0.269531,-0.070312 -0.386719,-0.1640625 -0.105468,-0.1054688 -0.164062,-0.2226563 -0.164062,-0.375 V -12.245391 h -1.019531 l -3.023438,0.972657 v 0.84375 h 1.746094 v 8.2968746 c -0.304688,0.1523438 -0.691406,0.3046875 -1.183594,0.4921875 -0.503906,0.1640625 -0.996094,0.2460938 -1.5,0.2460938 -0.890625,0 -1.5,-0.234375 -1.851562,-0.7382813 -0.363282,-0.4921875 -0.550782,-1.171875 -0.550782,-2.0507812 V -12.245391 H 16.70657 l -3.058593,0.972657 v 0.84375 h 1.734375 v 6.7148434 c 0,1.3945312 0.304687,2.4023437 0.925781,3.05859372 0.597656,0.6328125 1.429687,0.9609375 2.496094,0.9609375 0.503906,0 0.996093,-0.09375 1.488281,-0.304687495 0.503906,-0.199218755 0.972656,-0.421875005 1.40625,-0.691406255 0.433594,-0.26953125 0.796875,-0.50390627 1.078125,-0.72656247 V 7.03125e-4 Z m 0,0"
       style="fill:#dbdfe9;fill-opacity:1;fill-rule:nonzero;stroke:none"
       aria-label="Lu"
       transform="matrix(1.3333333,0,0,1.3333333,167.97067,53.46)" />
    <text
       id="text9"
       xml:space="preserve"
       transform="matrix(1.3333333,0,0,1.3333333,163.24667,75.477333)"><tspan
         id="tspan9"
         style="font-variant:normal;font-weight:normal;font-size:8.9664px;font-family:'PT Sans';writing-mode:lr-tb;fill:#dbdfe9;fill-opacity:1;fill-rule:nonzero;stroke:none"
         x="0"
         y="0">L</tspan></text>
    <text
       id="text10"
       xml:space="preserve"
       transform="matrix(1.3333333,0,0,1.3333333,169.1884,75.477333)"><tspan
         id="tspan10"
         style="font-variant:normal;font-weight:normal;font-size:8.9664px;font-family:'PT Sans';writing-mode:lr-tb;fill:#dbdfe9;fill-opacity:1;fill-rule:nonzero;stroke:none"
         x="0"
         dx="0 0 -0.098630399"
         y="0">utetium</tspan></text>
    <text
       id="text11"
       xml:space="preserve"
       transform="matrix(1.3333333,0,0,1.3333333,153.03867,17.976)"><tspan
         id="tspan11"
         style="font-variant:normal;font-weight:700;font-size:8.9664px;font-family:'PT Sans';writing-mode:lr-tb;fill:#dbdfe9;fill-opacity:1;fill-rule:nonzero;stroke:none"
         x="0"
         y="0">71</tspan></text>
    <text
       id="text12"
       xml:space="preserve"
       transform="matrix(1.3333333,0,0,1.3333333,184.75333,17.970667)"><tspan
         id="tspan12"
         style="font-variant:normal;font-weight:normal;font-size:8.9664px;font-family:'PT Sans';writing-mode:lr-tb;fill:#dbdfe9;fill-opacity:1;fill-rule:nonzero;stroke:none"
         x="0"
         y="0">174.97</tspan></text>
    <path
       id="path12"
       d="m 89.29231,-28.3468 v 56.69362 h 56.69364 V -28.3468 Z"
       style="fill:#2272b3;fill-opacity:1;fill-rule:nonzero;stroke:#dbdfe9;stroke-width:1.41731;stroke-linecap:butt;stroke-linejoin:miter;stroke-miterlimit:10;stroke-dasharray:none;stroke-opacity:1"
       transform="matrix(1.3333333,0,0,-1.3333333,114.33067,42.518667)" />
    <path
       id="path13"
       d="M 16.079211,0.06914062 V -1.0441406 c -0.773438,0 -1.371094,-0.1054688 -1.804688,-0.3164063 -0.445312,-0.1992187 -0.761718,-0.4921875 -0.984375,-0.84375 -0.210937,-0.3515625 -0.363281,-0.75 -0.46875,-1.1953125 -0.117187,-0.4453125 -0.210937,-0.9023437 -0.316406,-1.3710937 -0.105469,-0.46875 -0.269531,-0.9140625 -0.46875,-1.359375 -0.210937,-0.4335938 -0.539062,-0.8203125 -0.972656,-1.1601563 -0.421875,-0.3515625 -1.03125,-0.609375 -1.7929688,-0.796875 0.703125,-0.1523437 1.3593748,-0.3984375 1.9804688,-0.7148437 0.609375,-0.3164063 1.113281,-0.75 1.5,-1.2890629 0.398437,-0.5625 0.585937,-1.277343 0.585937,-2.132812 0,-1.628906 -0.539062,-2.789063 -1.617187,-3.433594 -1.089844,-0.644531 -2.5781251,-0.972656 -4.4531251,-0.972656 H 0.79796094 v 1.066406 l 1.28906246,0.09375 c 0.1757813,0.01172 0.3046875,0.07031 0.4101563,0.199219 0.082031,0.105469 0.1289062,0.222656 0.1289062,0.351562 v 13.2070316 c 0,0.1289063 -0.046875,0.2460938 -0.1289062,0.3515625 -0.1054688,0.1171875 -0.234375,0.1875 -0.4101563,0.1992188 l -1.28906246,0.09375 v 1.06640622 H 6.9620234 V -1.0675781 l -1.3125,-0.09375 C 5.4737422,-1.1730469 5.3448359,-1.2433594 5.2510859,-1.3605469 5.1807734,-1.4660156 5.1338984,-1.5832031 5.1338984,-1.7121094 v -5.6484375 c 0.023437,0 0.140625,-0.011719 0.3867188,-0.023437 0.2226562,-0.011719 0.46875,-0.023437 0.7265625,-0.023437 0.8671875,0 1.5585937,0.140625 2.0625,0.421875 0.515625,0.28125 0.9140625,0.65625 1.1953125,1.125 0.2695312,0.4570313 0.5039058,0.9726563 0.6562498,1.5234375 0.164063,0.5507813 0.316406,1.1015625 0.492188,1.6640625 0.140625,0.5507813 0.363281,1.0664063 0.621093,1.5351563 0.28125,0.45703122 0.65625,0.83203122 1.171875,1.11328122 0.480469,0.28125 1.160157,0.421875 2.003907,0.421875 0.375,0 0.714843,-0.046875 1.019531,-0.15234375 0.304687,-0.1171875 0.503906,-0.1640625 0.609375,-0.17578225 z m -5.4375,-12.18749962 c 0,1.324218 -0.363281,2.2382809 -1.1015626,2.7539059 -0.7382812,0.5039062 -1.7929687,0.7617187 -3.1757812,0.7617187 -0.1875,0 -0.4335938,0 -0.7265625,-0.011719 -0.3046875,-0.011719 -0.46875,-0.011719 -0.5039063,-0.011719 v -6.7968746 h 1.1367188 c 1.5585937,0 2.6835937,0.292968 3.3632812,0.867188 0.6679686,0.5625 1.0078126,1.382812 1.0078126,2.4375 z m 17.642578,12.11718712 v -0.97265625 l -1.195312,-0.0703125 c -0.152344,-0.011719 -0.269532,-0.070312 -0.375,-0.1640625 -0.105469,-0.1054688 -0.152344,-0.2226563 -0.152344,-0.375 v -6.9492188 c 0,-0.7148437 -0.105469,-1.359375 -0.339844,-1.9218751 -0.222656,-0.5625 -0.609375,-0.996094 -1.183594,-1.3125 -0.5625,-0.328125 -1.347656,-0.480469 -2.378906,-0.480469 -0.808594,0 -1.628906,0.09375 -2.414062,0.316407 -0.796875,0.1875 -1.453125,0.515625 -1.96875,0.9375 -0.515625,0.433593 -0.773438,0.9960934 -0.773438,1.6757809 0,0.3046875 0.09375,0.5039062 0.292969,0.5742187 0.1875,0.1054688 0.398437,0.140625 0.621094,0.140625 h 1.804687 v -2.1562496 c 0.128906,-0.04687 0.339844,-0.105469 0.65625,-0.199219 0.304688,-0.08203 0.679688,-0.117188 1.101563,-0.117188 1.535156,0 2.308593,0.808594 2.308593,2.4492191 v 1.0664063 c -1.617187,0.3515625 -2.929687,0.6914062 -3.890625,1.0429687 -0.996093,0.3398438 -1.722656,0.6914063 -2.226562,1.0429688 -0.492188,0.3632812 -0.832031,0.7382812 -0.996094,1.1367187 -0.152344,0.3984375 -0.246094,0.8320313 -0.246094,1.2890625 0,1.0429688 0.316407,1.8632813 0.949219,2.44921874 0.621094,0.59765625 1.382813,0.90234375 2.273438,0.90234375 0.480468,0 0.972656,-0.0820312 1.453125,-0.26953125 0.492187,-0.17578125 0.9375,-0.38671875 1.347656,-0.62109375 0.398437,-0.22265625 0.726562,-0.43359369 0.972656,-0.60937499 l 0.363281,-0.2695312 0.328125,1.46484369 z m -3.996094,-2.33203122 -0.292968,0.1757812 c -0.175782,0.1054688 -0.433594,0.2460938 -0.738282,0.4101563 -0.292968,0.1523437 -0.632812,0.2929687 -0.984375,0.4101562 -0.351562,0.1171875 -0.703125,0.1757813 -1.03125,0.1757813 -0.597656,0 -1.042968,-0.2226563 -1.382812,-0.65625 -0.316406,-0.421875 -0.480469,-0.890625 -0.480469,-1.40625 0,-0.3046875 0.04687,-0.5976563 0.140625,-0.890625 0.117188,-0.28125 0.316406,-0.5625 0.644531,-0.84375 0.328125,-0.2695313 0.808594,-0.5625 1.464844,-0.8320313 0.667969,-0.28125 1.546875,-0.5507812 2.660156,-0.8320312 z m 0,0"
       style="fill:#dbdfe9;fill-opacity:1;fill-rule:nonzero;stroke:none"
       aria-label="Ra"
       transform="matrix(1.3333333,0,0,1.3333333,252.04933,53.4)" />
    <text
       id="text13"
       xml:space="preserve"
       transform="matrix(1.3333333,0,0,1.3333333,251.82533,75.477333)"><tspan
         id="tspan13"
         style="font-variant:normal;font-weight:normal;font-size:8.9664px;font-family:'PT Sans';writing-mode:lr-tb;fill:#dbdfe9;fill-opacity:1;fill-rule:nonzero;stroke:none"
         x="0"
         y="0">R</tspan></text>
    <text
       id="text14"
       xml:space="preserve"
       transform="matrix(1.3333333,0,0,1.3333333,258.81913,75.477333)"><tspan
         id="tspan14"
         style="font-variant:normal;font-weight:normal;font-size:8.9664px;font-family:'PT Sans';writing-mode:lr-tb;fill:#dbdfe9;fill-opacity:1;fill-rule:nonzero;stroke:none"
         x="0"
         y="0">adium</tspan></text>
    <text
       id="text15"
       xml:space="preserve"
       transform="matrix(1.3333333,0,0,1.3333333,238.07867,17.976)"><tspan
         id="tspan15"
         style="font-variant:normal;font-weight:700;font-size:8.9664px;font-family:'PT Sans';writing-mode:lr-tb;fill:#dbdfe9;fill-opacity:1;fill-rule:nonzero;stroke:none"
         x="0"
         y="0">88</tspan></text>
    <text
       id="text16"
       xml:space="preserve"
       transform="matrix(1.3333333,0,0,1.3333333,278.04133,17.970667)"><tspan
         id="tspan16"
         style="font-variant:normal;font-weight:normal;font-size:8.9664px;font-family:'PT Sans';writing-mode:lr-tb;fill:#dbdfe9;fill-opacity:1;fill-rule:nonzero;stroke:none"
         x="0"
         y="0">(226)</tspan></text>
  </g>
</svg>
