<?xml version="1.0" encoding="UTF-8" standalone="no"?>
<!-- Created with Inkscape (http://www.inkscape.org/) -->

<svg
   width="34mm"
   height="10mm"
   viewBox="0 0 34 10"
   version="1.1"
   id="svg1"
   inkscape:version="1.4 (e7c3feb1, 2024-10-09)"
   sodipodi:docname="velura_rainbow.svg"
   xmlns:inkscape="http://www.inkscape.org/namespaces/inkscape"
   xmlns:sodipodi="http://sodipodi.sourceforge.net/DTD/sodipodi-0.dtd"
   xmlns="http://www.w3.org/2000/svg"
   xmlns:svg="http://www.w3.org/2000/svg">
  <sodipodi:namedview
     id="namedview1"
     pagecolor="#ffffff"
     bordercolor="#000000"
     borderopacity="0.25"
     inkscape:showpageshadow="2"
     inkscape:pageopacity="0.0"
     inkscape:pagecheckerboard="0"
     inkscape:deskcolor="#d1d1d1"
     inkscape:document-units="mm"
     inkscape:zoom="10.169561"
     inkscape:cx="53.345471"
     inkscape:cy="35.743924"
     inkscape:window-width="2384"
     inkscape:window-height="1634"
     inkscape:window-x="981"
     inkscape:window-y="176"
     inkscape:window-maximized="0"
     inkscape:current-layer="text1" />
  <defs
     id="defs1" />
  <g
     inkscape:label="Layer 1"
     inkscape:groupmode="layer"
     id="layer1">
    <g
       id="text1"
       style="font-weight:bold;font-size:9.87777px;font-family:'Comic Code';-inkscape-font-specification:'Comic Code Bold';stroke:#e8ebf3;stroke-width:0.35269;stroke-linecap:round;stroke-linejoin:round;paint-order:markers stroke fill"
       aria-label="VELURA">
      <path
         style="font-family:'Marker Felt';-inkscape-font-specification:'Marker Felt Bold';fill:#c5233f"
         d="M 6.1484801,1.4821135 Q 5.634836,2.795857 4.9829032,5.4727328 4.3902369,7.8927865 4.4001147,8.2187529 4.3902369,8.2483863 4.4198703,8.6731304 4.4396258,8.9003191 4.3507259,9.0879967 4.2519482,9.3250632 4.0840261,9.3546965 3.7975707,9.4139632 2.9283269,9.1373856 2.0689609,8.860808 1.9405499,8.6533748 1.8812833,8.5545971 1.8714055,8.3965528 1.8615277,8.1989974 1.8417722,8.129853 0.71570635,4.5639779 0.48851763,1.7389355 q 0,-0.049389 -0.0493888,-0.2074331 Q 0.40949547,1.4129691 0.41937324,1.3240692 0.46876209,0.97834722 0.70582858,0.89932506 0.82436183,0.85981397 1.5355613,1.0870027 2.2862718,1.3240692 2.365294,1.4919913 q 0.039511,0.098778 0,0.4148663 -0.00988,0.059267 -0.069144,0.1777999 Q 2.236883,2.193313 2.2467608,2.2723351 2.3949273,3.309501 2.5233383,4.0997227 2.839427,5.9962546 3.0172269,6.3518543 3.185149,5.4332217 3.6098931,4.000945 4.0346372,2.5686683 4.2025593,1.6105245 4.2124371,1.4228469 4.2914592,1.1067582 4.4001147,0.86969174 4.6174257,0.80054735 4.77547,0.7511585 5.3582585,0.96846945 5.9904358,1.2154137 6.1484801,1.4821135 Z"
         id="path7" />
      <path
         style="font-family:'Marker Felt';-inkscape-font-specification:'Marker Felt Bold';fill:#e2bb36"
         d="m 10.8503,7.8038866 q -0.02963,0.1679221 -0.1778,0.3654775 -0.138288,0.1876776 -0.246944,0.2271887 -0.02963,0.00988 -0.108655,-0.029633 -0.07902,-0.049389 -0.128411,-0.049389 -0.01976,0 -0.03951,0.00988 -0.3062112,0.0889 -0.6124221,0.2370665 Q 8.8056019,8.9003191 8.1931801,9.4238409 7.2054031,9.0188523 7.1165031,8.9793413 6.5040814,8.7126415 6.5040814,8.5842304 V 1.1561471 q 0,-0.069144 0.2271887,-0.19755542 0.2370665,-0.12841102 0.345722,-0.11853325 0.1185332,0.009878 0.4741329,0.15804433 0.3555998,0.13828874 0.5827885,0.13828874 0.2963331,0 0.7704661,-0.26669976 0.4346219,-0.25682203 0.5432774,-0.21731094 0.2370665,0.0790222 0.701322,0.5235218 0.474133,0.4346219 0.513644,0.6222996 0.01975,0.0889 -0.187678,0.3062108 -0.197555,0.217311 -0.325966,0.217311 -0.108656,0 -0.1580447,-0.029633 Q 9.9415455,2.2624574 9.9217899,2.2723351 9.5661902,2.3513573 9.2599793,2.4600128 8.5290243,2.706957 8.1833023,3.0329235 V 4.643 q 0.345722,-0.1777998 0.8988772,-0.3654775 0.1580443,-0.019755 0.6618106,0.4444997 0.5136439,0.4543774 0.5136439,0.6321773 0,0.1086555 -0.138289,0.256822 -0.1382884,0.1481666 -0.2666995,0.1876777 -0.098778,0 -0.3457219,0.019756 Q 9.1315683,5.8875991 8.1833023,6.450632 V 7.4877979 Q 8.4796355,7.3099981 8.9834018,7.0729316 9.4970458,6.8259873 9.6155791,6.8259873 q 0.1382887,0 0.6914439,0.4346219 0.563033,0.4247441 0.543277,0.5432774 z"
         id="path8" />
      <path
         style="font-family:'Marker Felt';-inkscape-font-specification:'Marker Felt Bold';fill:#29a245"
         d="m 15.591626,7.74462 q -0.118533,0.4642552 -0.375355,0.5630329 -0.07902,0.029633 -0.217311,0.00988 -0.128411,-0.019755 -0.187678,0.00988 l -1.46191,0.6124218 q -0.06914,0.029633 -0.148166,0.1679221 -0.06915,0.1382888 -0.138289,0.1580443 Q 12.845606,9.3448188 12.144284,9.11763 11.442963,8.8904413 11.294796,8.6928859 11.186141,8.5348416 11.225652,8.1989974 11.245407,8.0409531 11.245407,7.9520531 V 1.3141914 q -0.01975,-0.098778 -0.07902,-0.1679221 -0.05927,-0.069144 -0.05927,-0.1185332 0.01976,-0.18767767 0.345722,-0.2765776 0.207434,-0.0493888 0.898878,0.14816656 0.780343,0.22718874 0.790221,0.53339964 0,0.079022 -0.108655,0.2370664 -0.108656,0.1580444 -0.108656,0.2370665 V 7.3692647 L 13.951916,6.924765 q 0.0889,-0.079022 0.335845,-0.1777999 0.138288,-0.019755 0.740832,0.4247442 0.602544,0.4346219 0.563033,0.5729107 z"
         id="path9" />
      <path
         style="font-family:'Marker Felt';-inkscape-font-specification:'Marker Felt Bold';fill:#58aa9a"
         d="m 21.014518,1.5808912 q 0.0099,-0.1086555 0.0099,1.8866542 0,5.6303291 -1.570566,5.808129 -0.276578,0.029633 -0.671688,-0.098778 Q 18.396909,9.0484857 18.021553,8.9200746 17.695587,8.8410525 17.359743,8.7521525 17.033776,8.6533748 16.846099,8.4459417 16.44111,8.001442 16.194166,6.5098987 15.976855,5.1368886 15.976855,3.4675454 q 0,-1.2841102 0.138289,-2.2620095 0.03951,-0.30621084 0.286455,-0.39511078 0.108655,-0.0395111 0.750711,0.13828879 0.651932,0.17779989 0.760588,0.30621089 0.04939,0.059267 0.04939,0.1580443 0,0.128411 -0.09878,0.3555998 -0.09878,0.2173109 -0.0889,0.3457219 -0.04939,0.1876777 -0.04939,1.0865548 0,1.7384876 0.158045,3.1510087 0.197555,1.8175098 0.57291,1.7779987 0.474133,-0.049389 0.7112,-1.7286098 0.187677,-1.2939879 0.187677,-3.0522311 0,-1.1556991 -0.06914,-1.4520322 0.01975,-0.1679221 -0.03951,-0.3259665 -0.0889,-0.2173109 -0.0889,-0.2370664 -0.05927,-0.33584424 0.217311,-0.50376634 0.04939,-0.0296333 0.167922,-0.0296333 0.296333,0 0.829733,0.14816656 0.533399,0.14816659 0.622299,0.24694429 0.05927,0.069144 0.01976,0.385233 z"
         id="path10" />
      <path
         style="font-family:'Marker Felt';-inkscape-font-specification:'Marker Felt Bold';fill:#2a8ad9"
         d="m 27.118976,7.7248644 q 0.0889,0.1679221 -0.3556,0.8297327 Q 26.328754,9.20653 26.032421,9.1966522 25.716333,9.1867744 25.528655,8.860808 25.499022,8.7620303 25.380488,8.5743527 L 23.296279,6.6284319 v 1.8273875 q 0,0.1086555 0.07902,0.2765776 0.0889,0.1679221 0.0889,0.2469443 0,0.2963331 -0.385233,0.3259664 -0.296333,0.029633 -0.879122,-0.1086555 -0.632177,-0.1382888 -0.632177,-0.2963331 0,-0.049389 0.01976,-0.128411 0.02963,-0.0889 0.02963,-0.217311 V 1.6599134 q 0,-0.069144 -0.02963,-0.1185333 -0.02963,-0.059267 -0.02963,-0.0889 0.0099,-0.2666998 0.395111,-0.3160887 0.118533,-0.019756 0.5334,0.098778 0.424744,0.1086554 0.602544,0.098778 0.167922,-0.00988 0.681566,-0.2666998 0.523522,-0.26669985 0.908755,-0.26669985 0.148166,0 0.306211,0.0296333 0.276577,0.0592666 0.503766,0.25682204 0.227189,0.1975554 0.434622,0.3951108 0.543277,0.5136441 0.563033,0.5432774 0.256822,0.2963331 0.276577,0.6618106 0.05927,1.1458214 -1.955798,2.9435756 0.414866,0.3753553 1.827387,1.8273875 0.0889,0.029633 0.256822,0.1185333 0.09878,0.049389 0.227189,0.1481665 z M 24.935989,2.2031908 q -0.464255,0 -1.63971,0.9680215 v 1.5112988 q 0.424744,-0.1679221 1.116188,-1.0174103 0.691444,-0.8494883 0.691444,-1.2643546 0,-0.1975554 -0.167922,-0.1975554 z"
         id="path11" />
      <path
         style="font-family:'Marker Felt';-inkscape-font-specification:'Marker Felt Bold';fill:#9d3bd6"
         d="m 33.608675,8.4953305 q -0.0099,0.0889 -0.03951,0.4247441 -0.0099,0.1777999 -0.07902,0.2666998 -0.04939,0.029633 -0.167922,0.029633 -0.325967,0 -0.809977,-0.1679221 -0.523522,-0.1580444 -0.7112,-0.3753553 -0.07902,-0.0889 -0.158044,-0.5926662 -0.108656,-0.6618107 -0.246944,-1.0964326 -0.375356,0.049389 -1.096433,0.2765776 -0.721077,0.217311 -0.938388,0.3654775 -0.148167,0.4247441 -0.395111,1.0470437 -0.02963,0.1382888 -0.06914,0.256822 -0.02963,0.128411 -0.167922,0.2074332 -0.02963,0.019756 -0.0889,0.019756 -0.237067,0 -0.8001,-0.2469442 -0.553155,-0.2469443 -0.57291,-0.3259665 -0.03951,-0.1382887 0.187677,-0.6815661 0.316089,-0.7902216 0.365478,-0.9680215 -0.207433,-0.2074332 -0.207433,-0.4148664 0,-0.049389 0.0099,-0.1086554 0.01976,-0.1185333 0.602544,-0.4247442 l 1.274233,-4.3560967 q 0.02963,-0.1185333 0.0099,-0.4346219 -0.01975,-0.26669983 0.05927,-0.33584423 0.04939,-0.0493889 0.237067,-0.0493889 0.464255,0 1.323621,0.23706648 0.859366,0.2370665 1.027288,0.4247441 0.05927,1.0964326 0.4445,3.2892976 0.493888,2.7065091 1.007532,3.7337972 z M 31.030577,5.4924883 Q 30.902166,4.8701888 30.872533,4.6726334 30.763877,4.0108227 30.724366,3.2996233 30.526811,3.783634 30.260111,4.643 29.973656,5.5418772 29.9539,5.7690659 30.141578,5.6900437 31.030577,5.4924883 Z"
         id="path12"
         inkscape:label="path12" />
    </g>
  </g>
</svg>
